<?xml version="1.0" encoding="utf-8"?>
<!-- Generator: Adobe Illustrator 16.0.0, SVG Export Plug-In . SVG Version: 6.00 Build 0)  -->
<!DOCTYPE svg PUBLIC "-//W3C//DTD SVG 1.1//EN" "http://www.w3.org/Graphics/SVG/1.1/DTD/svg11.dtd">
<svg version="1.1" id="Layer_1" xmlns="http://www.w3.org/2000/svg" xmlns:xlink="http://www.w3.org/1999/xlink" x="0px" y="0px"
	 width="78px" height="78px" viewBox="0 0 78 78" enable-background="new 0 0 78 78" xml:space="preserve">
<path fill="#3B4EF8" d="M38.66,77.32C17.309,77.32,0,60.01,0,38.66C0,17.309,17.309,0,38.66,0c21.35,0,38.66,17.309,38.66,38.66
	C77.32,60.012,60.012,77.32,38.66,77.32z M38.66,75C58.73,75,75,58.73,75,38.66S58.73,2.32,38.66,2.32S2.32,18.59,2.32,38.66
	S18.59,75,38.66,75z M21.949,51.831h18.223c2.01-0.183,3.928-1.005,5.756-2.468c3.744-2.924,5.526-6.764,5.344-11.516
	c-1.097-6.856-4.979-10.786-11.647-11.792l1.37,1.509c0.457,0.64,0.457,1.096,0,1.37c-0.456,0.275-1.004,0.046-1.644-0.685
	l-2.734-2.605c-0.278-0.548-0.189-1.051,0.268-1.508l3.015-3.016c0.457-0.366,0.867-0.366,1.233,0c0.365,0.365,0.365,0.73,0,1.096
	l-1.919,2.194c5.755,0.366,9.911,3.2,12.469,8.5c2.467,6.49,1.233,12.203-3.699,17.139c-2.924,2.65-7.08,3.885-12.468,3.702
	c-5.39-0.183-9.911-0.183-13.565,0c-0.64-0.05-0.96-0.37-0.96-0.96C20.989,52.15,21.309,51.831,21.949,51.831z M33.16,27.11
	c-5.554,2.414-8.566,5.722-9.037,9.923c-0.847,5.453,1.271,9.968,6.354,13.544h-2.824c-4.142-3.576-5.93-7.912-5.365-13.007
	c0.564-5.185,3.812-9.164,9.743-11.935L33.16,27.11L33.16,27.11z M44.934,54.387l3.199-1.548h5.87l-1.735-1.677
	c-0.621-0.43-0.711-0.859-0.266-1.29c0.443-0.431,0.934-0.386,1.467,0.13l2.801,2.58c0.799,0.602,0.844,1.203,0.133,1.805
	l-2.934,2.711c-0.533,0.514-0.978,0.6-1.334,0.256c-0.355-0.344-0.355-0.729,0-1.16l1.734-1.807H44.934z"/>
</svg>
