<?xml version="1.0" encoding="utf-8"?>
<!-- Generator: Adobe Illustrator 16.0.0, SVG Export Plug-In . SVG Version: 6.00 Build 0)  -->
<!DOCTYPE svg PUBLIC "-//W3C//DTD SVG 1.1//EN" "http://www.w3.org/Graphics/SVG/1.1/DTD/svg11.dtd">
<svg version="1.1" id="Layer_1" xmlns="http://www.w3.org/2000/svg" xmlns:xlink="http://www.w3.org/1999/xlink" x="0px" y="0px"
	 width="84px" height="78px" viewBox="0 0 84 78" enable-background="new 0 0 84 78" xml:space="preserve">
<path fill="#3B4EF8" d="M20.322,0.5c4.009-0.447,8.727,0.392,11.486,2.072c2.164,1.305,5.501,4.699,8.354,8.466
	c0.933,1.231,1.734,2.238,1.809,2.238c0.075,0,0.895-1.008,1.827-2.238c2.853-3.767,5.481-6.508,7.832-8.15
	c4.196-2.908,12.29-3.337,17.622-0.913c2.35,1.044,4.4,2.554,6.75,4.94c6.732,6.77,9.137,14.62,6.881,22.434
	c-0.876,3.058-4.083,8.875-7.496,13.575l-1.473,2.051l-2.387,3.096L69.4,50.7c-4.979,6.116-10.631,12.271-18.853,20.512
	c-6.303,6.321-6.508,6.489-8.578,6.489c-2.088,0-2.275-0.148-8.783-6.676c-8.13-8.168-13.65-14.19-18.647-20.326l-2.126-2.629
	l-2.386-3.096l-1.734-2.424c-2.108-2.928-4.793-7.385-5.949-9.847C-0.49,26.625-0.453,20.266,2.457,14.43
	C3.894,11.558,5.46,9.414,7.94,6.896C11.93,2.87,15.417,1.06,20.322,0.5z M25.282,3.503c-5.986-0.84-11.151,1.081-15.738,5.856
	c-2.443,2.535-4.606,6.116-5.594,9.23c-1.026,3.245-1.026,6.788,0.018,10.163c0.95,3.058,4.438,9.043,8.296,14.246l1.585,2.126
	C27.877,60.889,36.856,70.59,40.788,74.23c1.195,1.106,1.118,1.035,2.251,0.049c6.045-5.254,23.527-24.381,28.656-31.319
	c5.129-6.937,8.074-12.4,8.802-16.354c0.839-4.624-0.243-9.044-3.356-13.799c-2.257-3.45-5.445-6.321-8.765-7.925
	c-2.444-1.157-4.084-1.492-7.385-1.473c-3.916,0.037-6.116,0.69-8.577,2.592c-2.2,1.715-5.464,5.482-8.168,9.454
	c-2.032,3.002-2.517,3.002-4.55,0c-2.014-2.946-4.736-6.265-6.62-8.056C30.485,4.939,28.508,3.949,25.282,3.503L25.282,3.503z
	 M63.322,6.747c0.261-0.28,0.672-0.466,0.951-0.466c0.597,0,2.592,1.137,4.457,2.536c1.754,1.324,4.569,4.214,4.569,4.699
	c0,0.95-0.745,1.715-1.696,1.715c-0.225,0-1.026-0.653-1.996-1.64c-1.771-1.81-3.375-3.06-5.203-4.066
	c-0.652-0.373-1.268-0.82-1.36-1.006C62.725,7.934,62.839,7.206,63.322,6.747z M73.766,17.19c0.279-0.298,0.67-0.466,1.024-0.466
	s0.746,0.168,1.026,0.466c0.297,0.28,0.465,0.671,0.465,1.025c0,0.355-0.168,0.745-0.465,1.026c-0.28,0.298-0.672,0.466-1.026,0.466
	s-0.745-0.168-1.024-0.466c-0.287-0.266-0.455-0.635-0.467-1.026C73.299,17.861,73.467,17.469,73.766,17.19z M35.148,30.044
	c0.454,0.456,0.454,1.192,0,1.647l-7.342,7.342l7.345,7.342c0.456,0.454,0.457,1.191,0.002,1.647c0,0.001-0.001,0.001-0.002,0.003
	c-0.454,0.455-1.192,0.457-1.647,0.002c-0.001,0-0.001-0.002-0.002-0.002l-8.135-8.137c-0.013-0.01-0.023-0.02-0.033-0.029
	c-0.456-0.457-0.458-1.196-0.003-1.653c0.013-0.01,0.023-0.02,0.033-0.03l8.135-8.132c0.454-0.456,1.192-0.457,1.647-0.002
	C35.146,30.042,35.147,30.043,35.148,30.044z M44.043,23.596c0.635,0.113,1.057,0.718,0.945,1.353L39.947,53.52
	c-0.111,0.635-0.715,1.059-1.349,0.947c-0.634-0.111-1.058-0.716-0.947-1.35l5.042-28.575C42.803,23.909,43.41,23.482,44.043,23.596
	z M57.311,38.206c0.457,0.457,0.455,1.197-0.002,1.653c-0.01,0.01-0.02,0.02-0.031,0.029l-8.135,8.137
	c-0.455,0.455-1.192,0.457-1.648,0.002l-0.002-0.002c-0.456-0.455-0.457-1.192-0.002-1.648c0,0,0.001-0.001,0.002-0.002l7.342-7.342
	l-7.342-7.339c-0.456-0.454-0.457-1.192-0.002-1.647c0-0.001,0.001-0.001,0.002-0.002c0.454-0.456,1.191-0.457,1.647-0.002
	c0.001,0.001,0.001,0.002,0.003,0.002l8.135,8.132C57.289,38.185,57.301,38.195,57.311,38.206z"/>
</svg>
