<?xml version="1.0" encoding="utf-8"?>
<!-- Generator: Adobe Illustrator 16.0.0, SVG Export Plug-In . SVG Version: 6.00 Build 0)  -->
<!DOCTYPE svg PUBLIC "-//W3C//DTD SVG 1.1//EN" "http://www.w3.org/Graphics/SVG/1.1/DTD/svg11.dtd">
<svg version="1.1" id="Layer_1" xmlns="http://www.w3.org/2000/svg" xmlns:xlink="http://www.w3.org/1999/xlink" x="0px" y="0px"
	 width="76px" height="61px" viewBox="0 0 76 61" enable-background="new 0 0 76 61" xml:space="preserve">
<path fill="#3B4EF8" d="M25.369,16.246c-0.43,0-0.852-0.208-1.113-0.591l-4.12-6.04c-0.42-0.612-0.264-1.45,0.349-1.87
	c0.001,0,0.002-0.001,0.003-0.002c0.613-0.42,1.45-0.264,1.87,0.348c0.001,0.002,0.002,0.003,0.003,0.005l4.12,6.04
	c0.423,0.613,0.262,1.457-0.352,1.872C25.907,16.166,25.641,16.249,25.369,16.246z M34.156,14.872c-0.653,0-1.22-0.468-1.328-1.128
	l-1.926-11.81c-0.118-0.735,0.379-1.428,1.113-1.55c0.734-0.118,1.427,0.378,1.55,1.112l1.926,11.81
	c0.118,0.735-0.379,1.427-1.113,1.55C34.301,14.872,34.225,14.872,34.156,14.872z M42.941,14.872c-0.061,0-0.121,0-0.184-0.015
	c-0.736-0.104-1.25-0.783-1.15-1.52l1.649-11.81c0.146-0.731,0.856-1.206,1.587-1.061c0.672,0.133,1.137,0.747,1.083,1.429
	l-1.649,11.818C44.186,14.38,43.615,14.875,42.941,14.872z M51.184,16.246c-0.244,0-0.498-0.07-0.729-0.215
	c-0.627-0.397-0.813-1.227-0.414-1.854c0.002-0.003,0.004-0.007,0.007-0.011l4.666-7.275c0.405-0.624,1.237-0.806,1.865-0.407
	c0.627,0.403,0.81,1.238,0.407,1.865l-4.666,7.283C52.061,16.031,51.63,16.246,51.184,16.246z M9.983,46.189
	c-0.13,0-0.261-0.016-0.384-0.053l-8.242-2.48c-0.354-0.105-0.648-0.352-0.813-0.682c-0.168-0.329-0.193-0.712-0.07-1.06
	l8.242-23.068c0.259-0.705,1.041-1.067,1.746-0.808c0.027,0.01,0.054,0.021,0.081,0.032l7.966,3.568
	c0.53,0.238,0.852,0.79,0.79,1.366C18.187,34.18,11.426,45.1,11.135,45.561C10.881,45.952,10.444,46.189,9.983,46.189L9.983,46.189z
	 M3.49,41.484l5.87,1.759c1.543-2.687,6.025-11.082,7.138-19.554l-5.733-2.57L3.49,41.484z M66.018,46.189
	c-0.424,0-0.824-0.199-1.082-0.537c-7.513-10.022-9.769-21.226-9.86-21.702c-0.106-0.544,0.131-1.099,0.599-1.396l6.868-4.398
	c0.321-0.207,0.713-0.26,1.082-0.168c0.368,0.1,0.675,0.353,0.853,0.69l10.988,21.695c0.169,0.322,0.192,0.706,0.069,1.051
	c-0.123,0.346-0.376,0.631-0.706,0.783l-8.242,3.844C66.41,46.141,66.216,46.189,66.018,46.189z M57.93,24.31
	c0.66,2.701,3.023,11.12,8.518,18.833l5.971-2.787l-9.677-19.123L57.93,24.31z M58.598,48.383c-0.33,0-0.66-0.121-0.92-0.359
	c-6.232-5.811-16.547-15.311-17.675-16.055c-0.644-0.422-1.872-0.254-2.686-0.023c-0.69,1.359-2.609,4.604-5.556,5.41
	c-2.049,0.561-3.814,0.308-4.957-0.705c-0.898-0.791-1.305-1.98-1.12-3.254c0.253-1.758,1.335-3.055,1.972-3.685
	c0.138-1.128,0.545-3.437,1.65-4.704c1.48-1.696,6.139-4.382,6.66-4.68c0.093-0.055,0.185-0.093,0.292-0.124
	c0.207-0.061,5.174-1.488,8.864,0.046c2.478,1.036,4.09,2.08,4.827,2.61l6.354-0.507c0.74-0.054,1.387,0.497,1.45,1.236
	c0.062,0.74-0.489,1.389-1.229,1.45c-0.002,0-0.004,0-0.006,0l-6.869,0.553c-0.352,0.027-0.7-0.083-0.974-0.307
	c-0.016-0.008-1.565-1.274-4.597-2.54c-2.518-1.044-6.162-0.185-6.922,0.007c-1.857,1.067-4.95,3.031-5.824,4.029
	c-0.568,0.652-0.952,2.548-1.044,3.691c-0.03,0.376-0.215,0.721-0.514,0.952c-0.008,0.008-1.228,1.006-1.42,2.348
	c-0.054,0.377,0.023,0.668,0.238,0.853c0.338,0.3,1.159,0.483,2.463,0.13c1.957-0.537,3.63-3.46,4.068-4.45
	c0.145-0.323,0.406-0.584,0.736-0.714c0.346-0.138,3.461-1.305,5.633,0.13C43.02,30.734,55.159,42,58.705,45.3l5.025-3.651
	c0.614-0.426,1.457-0.272,1.882,0.342c0.411,0.594,0.282,1.406-0.292,1.845l-5.926,4.312c-0.238,0.154-0.514,0.236-0.797,0.238
	V48.383z M31.547,26.136c-0.039,0-0.077,0-0.108-0.007l-13.598-1.098c-0.741-0.059-1.294-0.708-1.236-1.45
	c0.051-0.735,0.688-1.29,1.423-1.238c0.009,0,0.018,0.001,0.027,0.002l13.599,1.098c0.743,0.048,1.306,0.69,1.258,1.433
	C32.865,25.593,32.264,26.147,31.547,26.136L31.547,26.136z M57.086,53.203c-1.428,0-2.824-0.684-3.676-1.297
	c-0.031-0.023-0.055-0.047-0.085-0.07L41.24,41.463c-0.578-0.471-0.665-1.321-0.193-1.899c0.471-0.577,1.32-0.665,1.898-0.193
	c0.018,0.015,0.035,0.028,0.052,0.044l12.032,10.33c0.254,0.168,2.019,1.289,2.894,0.422c0.897-0.891-0.177-2.072-0.3-2.203
	c-0.513-0.539-0.492-1.391,0.047-1.903c0.538-0.513,1.391-0.492,1.903,0.046c1.22,1.283,2.294,3.938,0.245,5.971
	c-0.813,0.83-1.78,1.129-2.731,1.129L57.086,53.203z M52.266,57.3c-0.996,0-2.187-0.383-3.576-1.487
	c-1.895-1.521-12.201-10.469-12.639-10.852c-0.562-0.49-0.62-1.342-0.13-1.903s1.342-0.62,1.904-0.13
	c0.107,0.092,10.697,9.293,12.554,10.781c1.827,1.458,2.479,0.807,2.87,0.414c1.021-1.027,0.031-2.311-0.092-2.448
	c-0.469-0.577-0.383-1.424,0.191-1.896c0.577-0.469,1.426-0.383,1.896,0.193c0.92,1.135,2.095,3.859-0.092,6.055
	C54.576,56.609,53.602,57.3,52.266,57.3z M46.182,59.68c-1.443,0-2.764-0.744-3.492-1.382l-5.755-4.78
	c-0.572-0.472-0.653-1.318-0.182-1.891c0.001-0.002,0.003-0.004,0.004-0.005c0.472-0.572,1.318-0.653,1.891-0.182
	c0.002,0.001,0.004,0.003,0.005,0.005l5.779,4.804c0.291,0.253,1.719,1.351,2.793,0.215c0.782-0.829-0.314-2.133-0.361-2.194
	c-0.482-0.561-0.42-1.407,0.141-1.891c0.002-0.002,0.004-0.004,0.006-0.005c0.561-0.485,1.406-0.427,1.895,0.13
	c0.961,1.098,2.257,3.73,0.293,5.816C48.245,59.318,47.188,59.68,46.182,59.68L46.182,59.68z M39.52,60.361
	c-1.704,0-3.875-0.62-6.5-2.592c-0.596-0.446-0.717-1.291-0.271-1.887c0.001,0,0.001-0.001,0.002-0.002
	c0.446-0.596,1.29-0.717,1.886-0.271c0,0.001,0.001,0.001,0.002,0.001c4.972,3.73,7.183,1.275,7.267,1.168
	c0.48-0.563,1.322-0.637,1.896-0.17c0.567,0.469,0.659,1.297,0.199,1.865C43.979,58.514,42.443,60.361,39.52,60.361z M27.533,57.332
	c-0.875-0.002-1.729-0.27-2.448-0.768c-1.935-1.354-2.409-4.018-1.06-5.955l1.95-2.801c1.354-1.938,4.021-2.416,5.963-1.067
	c0.932,0.646,1.568,1.638,1.765,2.755c0.204,1.118-0.05,2.271-0.706,3.199l-1.95,2.802C30.248,56.648,28.934,57.334,27.533,57.332
	L27.533,57.332z M29.49,48.675c-0.514,0-1.005,0.253-1.297,0.675l-1.95,2.801c-0.499,0.717-0.323,1.703,0.392,2.203
	c0.69,0.483,1.72,0.291,2.203-0.392l1.949-2.8c0.237-0.346,0.331-0.77,0.26-1.184c-0.075-0.412-0.31-0.777-0.652-1.02
	C30.129,48.775,29.813,48.676,29.49,48.675z M22.568,54.484c-0.852,0-1.673-0.262-2.371-0.744c-1.878-1.315-2.341-3.9-1.036-5.786
	l1.465-2.11c1.314-1.885,3.907-2.346,5.792-1.032c0.902,0.63,1.519,1.591,1.714,2.673c0.195,1.086-0.05,2.205-0.683,3.109
	l-1.466,2.109C25.205,53.819,23.929,54.484,22.568,54.484L22.568,54.484z M24.041,46.766c-0.475,0-0.928,0.229-1.197,0.619
	l-1.466,2.111c-0.46,0.66-0.299,1.572,0.361,2.033c0.637,0.445,1.589,0.277,2.034-0.36l1.465-2.11
	c0.223-0.322,0.307-0.705,0.238-1.09c-0.068-0.383-0.286-0.723-0.606-0.943C24.626,46.855,24.337,46.766,24.041,46.766z
	 M18.178,51.322c-0.767,0-1.511-0.23-2.148-0.676c-0.819-0.569-1.376-1.441-1.55-2.424c-0.177-0.981,0.044-1.992,0.613-2.81
	l0.96-1.38c0.703-1.009,1.855-1.611,3.085-1.612c2.073,0.001,3.753,1.683,3.751,3.757c0,0.767-0.236,1.516-0.675,2.145l-0.96,1.381
	C20.558,50.716,19.408,51.322,18.178,51.322L18.178,51.322z M19.145,45.122c-0.345,0-0.675,0.169-0.867,0.453l-0.96,1.38
	c-0.336,0.473-0.225,1.128,0.248,1.465c0.004,0.002,0.008,0.006,0.013,0.008c0.47,0.324,1.153,0.2,1.475-0.26l0.96-1.38
	c0.335-0.478,0.22-1.138-0.258-1.474C19.577,45.188,19.363,45.121,19.145,45.122z M32.053,59.688c-0.767,0-1.504-0.23-2.133-0.668
	c-1.688-1.181-2.103-3.504-0.929-5.195l1.642-2.355c1.182-1.688,3.504-2.102,5.196-0.929c0.816,0.564,1.372,1.433,1.542,2.41
	c0.175,0.976-0.046,1.98-0.614,2.793l-1.634,2.348C34.419,59.09,33.274,59.685,32.053,59.688z M33.695,52.572
	c-0.337,0-0.66,0.171-0.852,0.445l-1.634,2.35c-0.328,0.468-0.215,1.113,0.252,1.441c0,0,0,0,0,0
	c0.453,0.315,1.128,0.192,1.443-0.26l1.634-2.349c0.161-0.229,0.215-0.499,0.17-0.775c-0.048-0.271-0.203-0.512-0.43-0.668
	C34.108,52.636,33.904,52.571,33.695,52.572z M15.546,47.58c-0.23,0-0.46-0.063-0.675-0.186l-4.766-2.754
	c-0.643-0.372-0.864-1.195-0.492-1.838c0.001-0.002,0.001-0.002,0.002-0.004c0.371-0.644,1.193-0.865,1.836-0.494
	c0.001,0.001,0.002,0.002,0.003,0.002l4.766,2.756c0.645,0.375,0.868,1.197,0.492,1.842C16.467,47.334,16.014,47.58,15.546,47.58z"
	/>
</svg>
