<?xml version="1.0" encoding="utf-8"?>
<!-- Generator: Adobe Illustrator 16.0.0, SVG Export Plug-In . SVG Version: 6.00 Build 0)  -->
<!DOCTYPE svg PUBLIC "-//W3C//DTD SVG 1.1//EN" "http://www.w3.org/Graphics/SVG/1.1/DTD/svg11.dtd">
<svg version="1.1" id="Layer_1" xmlns="http://www.w3.org/2000/svg" xmlns:xlink="http://www.w3.org/1999/xlink" x="0px" y="0px"
	 width="78px" height="78px" viewBox="0 0 78 78" enable-background="new 0 0 78 78" xml:space="preserve">
<path fill="#3B4EF8" d="M36.195,0.485c-9.002,0.831-17.142,5-22.912,11.75c-4.576,5.346-7.567,12.46-7.99,18.97
	c-0.06,0.815-0.15,1.54-0.196,1.615c-0.045,0.06-0.362,0.257-0.694,0.423c-1.51,0.77-3.051,3.05-3.73,5.512
	c-0.288,1.089-0.333,1.632-0.333,3.626c0.015,2.1,0.06,2.477,0.423,3.7c0.755,2.507,2.084,4.38,3.746,5.287
	c0.785,0.438,0.86,0.452,3.217,0.498l2.431,0.06l0.362,0.665c0.801,1.511,2.507,2.537,4.23,2.537c1.827,0,3.654-1.163,4.394-2.81
	l0.363-0.799V32.941l-0.408-0.77c-0.604-1.148-1.058-1.616-2.114-2.19c-0.861-0.452-1.073-0.498-2.236-0.513
	c-1.117,0-1.39,0.06-2.069,0.423c-0.951,0.498-1.752,1.253-2.16,2.069l-0.302,0.604H8.375l0.105-1.178
	c0.528-5.89,2.96-11.81,6.75-16.447l0.922-1.133l1.979,1.963c1.087,1.073,2.13,2.04,2.31,2.13c0.71,0.362,1.315,0.212,2.327-0.604
	c3.141-2.537,6.765-4.229,10.95-5.12c1.933-0.407,6.191-0.573,8.306-0.316c4.91,0.604,9.319,2.446,13.035,5.436
	c1.012,0.816,1.615,0.967,2.325,0.604c0.181-0.09,1.224-1.057,2.312-2.13l1.979-1.963l0.906,1.118
	c3.927,4.863,6.208,10.406,6.781,16.538l0.105,1.102h-1.857l-0.303-0.604c-0.406-0.816-1.207-1.57-2.16-2.07
	c-0.679-0.361-0.965-0.422-2.067-0.422c-1.058,0-1.42,0.076-2.039,0.378c-0.968,0.468-1.873,1.374-2.34,2.34l-0.38,0.756v9.212
	c0,10.406-0.045,10.043,1.179,11.373c0.8,0.859,1.632,1.328,2.765,1.539c1.586,0.304,3.217-0.256,4.35-1.524
	c0.302-0.333,0.664-0.847,0.8-1.133c0.256-0.529,0.256-0.529,1.177-0.484l0.906,0.046v3.172c0,2.069-0.075,3.533-0.211,4.229
	c-1.104,5.571-5.09,9.892-10.527,11.417c-1.057,0.302-1.646,0.348-5.044,0.393l-3.851,0.061l-0.288-0.619
	c-0.362-0.77-1.405-1.736-2.326-2.16c-0.694-0.316-0.876-0.332-6.75-0.332h-6.042l-0.86,0.424c-0.937,0.452-1.738,1.254-2.266,2.25
	c-0.287,0.543-0.347,0.877-0.347,2.084s0.06,1.541,0.347,2.084c0.528,0.998,1.33,1.797,2.265,2.25l0.86,0.424h6.042
	c5.876,0,6.057-0.016,6.751-0.332c0.907-0.408,1.948-1.375,2.312-2.131l0.287-0.588l3.715-0.091
	c4.638-0.104,6.254-0.407,8.986-1.706c3.76-1.768,7.114-5.24,8.76-9.076c1.103-2.554,1.435-4.576,1.435-8.881V51.67l0.68-0.361
	c1.57-0.83,3.052-3.035,3.729-5.527c0.438-1.647,0.47-5.227,0.062-6.797c-0.649-2.54-2.25-4.956-3.79-5.741
	c-0.77-0.393-0.83-0.469-0.83-1.315c0-2.054-0.906-6.403-1.889-9.107c-4.2-11.63-14.182-19.921-26.43-21.99
	C42.508,0.545,37.826,0.334,36.195,0.485L36.195,0.485z M41.27,3.717C45.725,4.08,50.18,5.44,53.939,7.6
	c1.375,0.785,3.761,2.462,4.729,3.323l0.65,0.574l-1.405,1.39l-1.405,1.374l-1.57-1.042c-4.728-3.142-9.998-4.682-16.024-4.682
	c-5.951,0-11.313,1.556-15.859,4.576c-0.786,0.514-1.51,0.997-1.6,1.058c-0.091,0.06-0.756-0.499-1.556-1.3l-1.405-1.404
	l1.148-0.936c4.757-3.897,10.723-6.313,16.78-6.797c2.22-0.182,2.703-0.182,4.849-0.016V3.717z M15.428,32.806
	c0.997,0.468,0.982,0.332,0.982,9.409c0,8.79-0.015,8.895-0.77,9.439c-0.453,0.318-1.33,0.318-1.782,0
	c-0.755-0.545-0.77-0.649-0.77-9.439c0-9.032-0.015-8.926,0.95-9.41C14.643,32.503,14.808,32.503,15.428,32.806L15.428,32.806z
	 M63.758,32.806c0.997,0.468,0.982,0.332,0.982,9.409c0,8.79-0.016,8.895-0.77,9.439c-0.453,0.318-1.33,0.318-1.783,0
	c-0.754-0.545-0.77-0.649-0.77-9.439c0-9.032-0.016-8.926,0.951-9.41C62.973,32.503,63.139,32.503,63.758,32.806L63.758,32.806z
	 M9.915,42.307v6.418H8.178c-1.903,0-2.265-0.106-2.96-0.861c-2.114-2.266-2.31-7.959-0.362-10.692
	c0.83-1.178,1.072-1.283,3.217-1.283h1.842v6.417V42.307z M72.034,36.173c2.312,1.511,3.051,7.146,1.375,10.481
	c-0.877,1.752-1.435,2.07-3.761,2.07H67.91V35.888h1.857C71.309,35.887,71.686,35.932,72.034,36.173L72.034,36.173z M46.48,71.801
	c0.513,0.574,0.588,1.405,0.197,1.98c-0.515,0.724-0.906,0.77-6.178,0.77c-5.422,0-5.754-0.047-6.177-0.892
	c-0.302-0.574-0.302-0.966,0-1.54c0.438-0.859,0.665-0.893,6.449-0.846l5.271,0.029L46.48,71.801z"/>
</svg>
