<?xml version="1.0" encoding="utf-8"?>
<!-- Generator: Adobe Illustrator 16.0.0, SVG Export Plug-In . SVG Version: 6.00 Build 0)  -->
<!DOCTYPE svg PUBLIC "-//W3C//DTD SVG 1.1//EN" "http://www.w3.org/Graphics/SVG/1.1/DTD/svg11.dtd">
<svg version="1.1" id="Layer_1" xmlns="http://www.w3.org/2000/svg" xmlns:xlink="http://www.w3.org/1999/xlink" x="0px" y="0px"
	 width="78px" height="78px" viewBox="0 0 78 78" enable-background="new 0 0 78 78" xml:space="preserve">
<path display="none" fill="#3B4EF8" d="M36.195,0.485c-9.002,0.831-17.142,5-22.912,11.75c-4.576,5.346-7.567,12.46-7.99,18.97
	c-0.06,0.815-0.15,1.54-0.196,1.615c-0.045,0.06-0.362,0.257-0.694,0.423c-1.51,0.77-3.051,3.05-3.73,5.512
	c-0.288,1.089-0.333,1.632-0.333,3.626c0.015,2.1,0.06,2.477,0.423,3.7c0.755,2.507,2.084,4.38,3.746,5.287
	c0.785,0.438,0.86,0.452,3.217,0.498l2.431,0.06l0.362,0.665c0.801,1.511,2.507,2.537,4.23,2.537c1.827,0,3.654-1.163,4.394-2.81
	l0.363-0.799V32.941l-0.408-0.77c-0.604-1.148-1.058-1.616-2.114-2.19c-0.861-0.452-1.073-0.498-2.236-0.513
	c-1.117,0-1.39,0.06-2.069,0.423c-0.951,0.498-1.752,1.253-2.16,2.069l-0.302,0.604H8.375l0.105-1.178
	c0.528-5.89,2.96-11.81,6.75-16.447l0.922-1.133l1.979,1.963c1.087,1.073,2.13,2.04,2.31,2.13c0.71,0.362,1.315,0.212,2.327-0.604
	c3.141-2.537,6.765-4.229,10.95-5.12c1.933-0.407,6.191-0.573,8.306-0.316c4.91,0.604,9.319,2.446,13.035,5.436
	c1.012,0.816,1.615,0.967,2.325,0.604c0.181-0.09,1.224-1.057,2.312-2.13l1.979-1.963l0.906,1.118
	c3.927,4.863,6.208,10.406,6.78,16.538l0.105,1.102h-1.857l-0.303-0.604c-0.406-0.816-1.207-1.57-2.16-2.07
	c-0.679-0.361-0.965-0.422-2.066-0.422c-1.059,0-1.42,0.076-2.039,0.378c-0.969,0.468-1.873,1.374-2.34,2.34l-0.381,0.756v9.212
	c0,10.406-0.045,10.043,1.18,11.373c0.8,0.859,1.632,1.328,2.766,1.539c1.586,0.304,3.217-0.256,4.35-1.524
	c0.302-0.333,0.664-0.847,0.8-1.133c0.256-0.529,0.256-0.529,1.177-0.484l0.906,0.046v3.172c0,2.069-0.075,3.533-0.211,4.229
	c-1.104,5.571-5.09,9.892-10.527,11.417c-1.057,0.302-1.646,0.348-5.044,0.393l-3.851,0.062l-0.288-0.619
	c-0.362-0.771-1.405-1.735-2.326-2.16c-0.694-0.315-0.876-0.332-6.75-0.332h-6.042l-0.86,0.425c-0.937,0.451-1.738,1.254-2.266,2.25
	c-0.287,0.543-0.347,0.877-0.347,2.084s0.06,1.541,0.347,2.084c0.528,0.998,1.33,1.797,2.265,2.25l0.86,0.424H40.5
	c5.876,0,6.057-0.017,6.751-0.332c0.907-0.408,1.948-1.375,2.312-2.131l0.287-0.588l3.715-0.092
	c4.639-0.104,6.254-0.406,8.986-1.706c3.76-1.769,7.114-5.239,8.76-9.075c1.104-2.555,1.436-4.576,1.436-8.881V51.67l0.68-0.361
	c1.57-0.83,3.053-3.035,3.729-5.527c0.438-1.646,0.471-5.227,0.063-6.796c-0.648-2.54-2.25-4.956-3.79-5.741
	c-0.77-0.393-0.829-0.469-0.829-1.315c0-2.054-0.906-6.403-1.89-9.107c-4.2-11.63-14.183-19.921-26.431-21.99
	C42.508,0.545,37.826,0.334,36.195,0.485L36.195,0.485z M41.27,3.717C45.725,4.08,50.18,5.44,53.939,7.6
	c1.375,0.785,3.761,2.462,4.729,3.323l0.65,0.574l-1.405,1.39l-1.405,1.374l-1.57-1.042c-4.728-3.142-9.998-4.682-16.023-4.682
	c-5.951,0-11.313,1.556-15.859,4.576c-0.786,0.514-1.51,0.997-1.6,1.058c-0.091,0.06-0.756-0.499-1.556-1.3l-1.405-1.404
	l1.148-0.936c4.757-3.897,10.723-6.313,16.78-6.797c2.22-0.182,2.703-0.182,4.85-0.016V3.717H41.27z M15.428,32.806
	c0.997,0.468,0.982,0.332,0.982,9.409c0,8.79-0.015,8.895-0.77,9.439c-0.453,0.318-1.33,0.318-1.782,0
	c-0.755-0.545-0.77-0.649-0.77-9.439c0-9.032-0.015-8.926,0.95-9.41C14.643,32.503,14.808,32.503,15.428,32.806L15.428,32.806z
	 M63.758,32.806c0.997,0.468,0.982,0.332,0.982,9.409c0,8.79-0.016,8.895-0.77,9.439c-0.453,0.318-1.33,0.318-1.783,0
	c-0.754-0.545-0.771-0.649-0.771-9.439c0-9.032-0.017-8.926,0.951-9.41C62.973,32.503,63.139,32.503,63.758,32.806L63.758,32.806z
	 M9.915,42.307v6.418H8.178c-1.903,0-2.265-0.105-2.96-0.861c-2.114-2.266-2.31-7.959-0.362-10.691
	c0.83-1.178,1.072-1.283,3.217-1.283h1.842V42.307L9.915,42.307z M72.034,36.173c2.312,1.511,3.051,7.146,1.375,10.481
	c-0.877,1.752-1.435,2.07-3.761,2.07H67.91V35.888h1.857C71.309,35.887,71.686,35.932,72.034,36.173L72.034,36.173z M46.48,71.801
	c0.513,0.574,0.588,1.405,0.197,1.98c-0.516,0.724-0.906,0.77-6.179,0.77c-5.422,0-5.754-0.047-6.177-0.892
	c-0.302-0.574-0.302-0.966,0-1.54c0.438-0.859,0.665-0.893,6.45-0.846l5.271,0.029L46.48,71.801z"/>
<path fill="#3B4EF8" d="M62.9,1.653c-0.025,0.061-0.077,0.368-0.111,0.684l-0.076,0.572l0.469,0.051
	c0.266,0.034,0.838,0.128,1.281,0.223c0.444,0.094,0.837,0.136,0.863,0.102c0.067-0.085,0.255-0.914,0.255-1.127
	c0-0.128-0.137-0.179-0.699-0.29c-0.377-0.075-0.755-0.137-1.136-0.188c-0.23-0.026-0.512-0.068-0.623-0.094
	C63.012,1.56,62.917,1.594,62.9,1.653L62.9,1.653z M60.973,26.408v7.658h-3.381l-0.146-1.237c-0.086-0.674-0.266-1.681-0.401-2.237
	c-0.145-0.555-0.257-1.067-0.257-1.151c0-0.078-0.025-0.155-0.06-0.171c-0.043-0.018-0.196-0.351-0.358-0.752
	c-0.504-1.272-1.332-2.767-2.639-4.765c-1.451-2.203-1.818-2.835-2.262-3.859c-0.453-1.059-0.658-2.006-0.718-3.244
	c-0.128-2.972,0.99-5.79,3.134-7.95c1.69-1.699,3.937-2.826,6.275-3.142c0.829-0.121,2.852-0.052,3.63,0.11
	C65.328,6,67.035,6.75,68.188,7.613c3.611,2.698,5.252,7.489,3.928,11.485c-0.461,1.392-0.974,2.305-2.731,4.927
	c-1.699,2.536-2.554,4.312-3.117,6.506c-0.257,0.966-0.512,2.595-0.512,3.194v0.341h-3.417V26.43l2.532-2.531
	c0.277-0.261,0.292-0.696,0.032-0.974c-0.259-0.277-0.696-0.292-0.974-0.032c-0.012,0.011-0.021,0.021-0.032,0.032l-2.229,2.23
	l-2.23-2.23c-0.275-0.263-0.711-0.253-0.974,0.022c-0.255,0.267-0.255,0.686,0,0.952L60.973,26.408L60.973,26.408z M56.573,2.379
	l0.512-0.205l0.23,0.478c0.366,0.795,0.4,0.734-0.743,1.213c-0.563,0.23-1.059,0.461-1.102,0.503
	c-0.179,0.179-0.315,0.06-0.598-0.503l-0.298-0.581l0.743-0.35C55.73,2.737,56.149,2.552,56.573,2.379z M60.118,4.18
	c-5.319,0.743-9.529,4.671-10.545,9.836c-0.223,1.093-0.256,2.843-0.094,3.868c0.324,1.965,1.032,3.493,2.972,6.421
	c1.254,1.896,2.492,3.945,2.425,4.022c-0.017,0.017-0.119-0.018-0.231-0.069c-0.212-0.12-0.307-0.035-0.674,0.649
	c-0.205,0.368-0.205,0.376-0.043,0.497c0.094,0.067,0.521,0.298,0.957,0.512L55.67,30.3l0.137,0.461
	c0.384,1.323,0.401,1.589,0.461,5.765l0.051,4.046l0.239,0.205l0.24,0.206h9.734l0.196-0.206l0.205-0.196l0.043-3.792
	c0.034-3.363,0.059-3.894,0.221-4.73c0.308-1.647,0.316-1.665,0.957-2.005l0.563-0.3l-0.256-0.521l-0.257-0.521l0.529-1.017
	c0.292-0.555,1.188-2.007,1.991-3.22c2.16-3.27,2.801-4.662,3.107-6.745c0.325-2.177-0.119-4.73-1.177-6.839
	c-1.71-3.39-4.953-5.849-8.71-6.583C63.115,4.146,60.912,4.069,60.118,4.18L60.118,4.18z M65.584,37.524v2.092h-7.856V38.25h6.66
	v-1.367h-6.66v-1.45h7.856V37.524z M70.372,5.112l-0.437,0.487l0.957,0.914l0.965,0.905l0.486-0.427
	c0.273-0.23,0.495-0.453,0.495-0.495c0-0.068-1.571-1.546-1.861-1.751C70.815,4.634,70.773,4.659,70.372,5.112L70.372,5.112z
	 M49.777,7.332c-0.172,0.23-0.522,0.726-0.786,1.11l-0.487,0.708l0.572,0.376l0.571,0.384l0.461-0.7
	c0.266-0.384,0.6-0.854,0.763-1.05c0.153-0.195,0.28-0.375,0.28-0.401c0-0.068-0.939-0.828-1.017-0.828
	C50.1,6.931,49.938,7.11,49.777,7.332L49.777,7.332z M75.076,11.653c-0.46,0.153-0.537,0.205-0.504,0.358
	c0.025,0.094,0.136,0.538,0.266,0.982c0.118,0.444,0.222,0.887,0.222,0.981c0.009,0.376,0.111,0.418,0.777,0.308
	c0.341-0.051,0.632-0.111,0.649-0.12c0.033-0.042-0.316-1.571-0.505-2.136c-0.103-0.315-0.222-0.571-0.272-0.563
	C75.657,11.465,75.375,11.55,75.076,11.653z M46.686,15.265c-0.034,0.324-0.061,0.948-0.061,1.375v0.794h1.341l0.052-1.298
	c0.026-0.717,0.034-1.323,0.017-1.341c-0.024-0.017-0.324-0.051-0.666-0.077l-0.632-0.034L46.686,15.265L46.686,15.265z
	 M74.889,19.927c-0.051,0.197-0.23,0.76-0.393,1.247c-0.171,0.487-0.291,0.896-0.273,0.914c0.009,0.008,0.299,0.119,0.632,0.239
	l0.614,0.222L75.7,21.89c0.29-0.811,0.556-1.724,0.556-1.903c0-0.095-0.136-0.163-0.444-0.239c-0.248-0.051-0.538-0.119-0.641-0.145
	C75.009,19.56,74.974,19.603,74.889,19.927z M48.675,22.719c-0.308,0.18-0.547,0.359-0.538,0.41
	c0.051,0.273,1.298,2.237,1.417,2.246c0.043,0,0.3-0.163,0.581-0.358l0.504-0.351l-0.146-0.221c-0.348-0.543-0.681-1.097-1-1.657
	c-0.128-0.222-0.238-0.401-0.247-0.401C49.238,22.386,48.982,22.54,48.675,22.719z M70.662,26.792
	c-0.306,0.273-0.625,0.532-0.957,0.776c-0.247,0.171-0.452,0.35-0.452,0.393c0,0.068,0.358,0.58,0.734,1.067
	c0.026,0.042,1.238-0.896,1.768-1.366l0.418-0.367l-0.418-0.487c-0.222-0.266-0.444-0.487-0.496-0.487
	C71.217,26.321,70.943,26.536,70.662,26.792z M57.777,42.545c0.222-0.178,0.315-0.178,3.893-0.178h3.663l0.203,0.213
	c0.137,0.128,0.215,0.308,0.215,0.47s-0.076,0.341-0.213,0.47l-0.205,0.213H61.67c-3.577,0-3.671,0-3.893-0.179
	c-0.171-0.138-0.222-0.247-0.222-0.504S57.606,42.682,57.777,42.545L57.777,42.545z M54.017,72.114l0.011,0.005v0.676H41.543
	c0.602,1.437,0.914,2.978,0.92,4.535V78H12.566v-0.67c0-1.598,0.336-3.119,0.921-4.536H1v-0.669c0-3.998,2.84-7.412,6.817-8.755
	c-0.605-0.77-1.096-1.625-1.455-2.537c-0.536-0.299-0.974-0.887-1.142-1.569c-0.369-1.509-0.092-2.337,0.313-2.787l-0.017-0.528
	c0-0.288-0.01-0.531-0.016-0.77c-0.049-1.868-0.113-4.185,3.907-4.816l0.53-0.08c1.289-0.124,2.662-0.46,2.917-0.649l2.148-2.023
	l0.292,2.993c0.011,0.135,0.038,0.265,0.069,0.4c2.267,1.197,2.182,3.917,2.155,4.966v0.591c0.73,0.757,0.389,2.116,0.232,2.739
	c-0.178,0.7-0.595,1.287-1.142,1.618c-0.326,0.891-0.792,1.727-1.381,2.471c1.695,0.571,3.178,1.514,4.324,2.726
	c0.968-0.54,2.012-0.988,3.112-1.325c-1.24-1.416-2.014-3.098-2.376-4.047c-0.746-0.368-1.369-1.186-1.607-2.131
	c-0.529-2.177-0.096-3.292,0.473-3.861l-0.028-0.892c0-0.399-0.011-0.763-0.022-1.109c-0.075-2.728-0.157-5.805,5.411-6.682
	l0.774-0.126c1.992-0.193,4.053-0.719,4.372-1.006l2.679-2.526l0.363,3.734c0,0.033,0.015,0.351,0.141,0.756
	c2.894,1.436,3.154,4.66,3.083,6.992v0.989c1.05,0.965,0.564,2.905,0.341,3.776c-0.238,0.953-0.844,1.777-1.607,2.203
	c-0.487,1.354-1.26,2.775-2.288,3.94c1.088,0.335,2.12,0.777,3.084,1.313c1.152-1.224,2.651-2.17,4.36-2.743
	c-0.605-0.771-1.096-1.625-1.456-2.537c-0.54-0.299-0.978-0.888-1.146-1.569c-0.375-1.514-0.098-2.338,0.309-2.787l-0.019-0.528
	c0-0.288-0.003-0.531-0.01-0.77c-0.048-1.868-0.113-4.185,3.908-4.816l0.535-0.08c1.288-0.125,2.657-0.461,2.911-0.65l2.148-2.024
	l0.296,2.993c0,0.033,0.017,0.196,0.071,0.401c2.268,1.196,2.187,3.916,2.153,4.966v0.589c0.731,0.759,0.389,2.116,0.232,2.739
	c-0.178,0.702-0.595,1.284-1.142,1.618c-0.325,0.892-0.791,1.729-1.381,2.473C51.191,64.724,54.017,68.127,54.017,72.114
	L54.017,72.114z M49.055,71.441h3.591c-0.26-2.738-2.108-5.086-4.732-6.347c-1.744,2.429-5.127,2.986-7.556,1.243
	c-0.48-0.345-0.9-0.765-1.243-1.243c-0.922,0.433-1.764,1.022-2.489,1.737c1.781,1.228,3.247,2.803,4.26,4.609h6.827v-1.702
	c0-0.37,0.301-0.673,0.672-0.673c0.37,0,0.671,0.303,0.671,0.673V71.441z M35.252,76.654l5.832-0.013
	c-0.091-1.341-0.436-2.651-1.017-3.861c-0.109-0.228-0.212-0.456-0.336-0.673c-0.132-0.225-0.265-0.454-0.406-0.67h-0.027v-0.042
	c-0.395-0.599-0.84-1.162-1.335-1.681c-0.661-0.705-1.402-1.334-2.208-1.87c-0.185-0.124-0.374-0.237-0.569-0.357
	c-0.191-0.113-0.383-0.224-0.579-0.331c-0.271-0.14-0.541-0.285-0.822-0.416c-1.4,2.102-3.757,3.368-6.282,3.372
	c-2.523-0.003-4.878-1.267-6.278-3.365c-0.286,0.124-0.557,0.273-0.827,0.415c-0.195,0.109-0.39,0.218-0.579,0.336
	c-0.195,0.12-0.383,0.232-0.567,0.357c-0.818,0.551-1.559,1.179-2.214,1.873c-0.498,0.525-0.947,1.081-1.336,1.678v0.035h-0.027
	c-0.141,0.224-0.277,0.445-0.407,0.673c-0.117,0.22-0.229,0.444-0.335,0.669c-0.58,1.217-0.926,2.528-1.018,3.871h5.839v-2.781
	c-0.015-0.371,0.273-0.684,0.643-0.699c0.371-0.017,0.682,0.271,0.699,0.645c0,0.019,0,0.035,0,0.057v2.781h12.813v-2.781
	c0-0.372,0.301-0.673,0.671-0.673c0.371,0,0.671,0.301,0.671,0.673L35.252,76.654L35.252,76.654z M6.62,69.063
	c0.369-0.003,0.67,0.296,0.671,0.664c0,0.003,0,0.007,0,0.012v1.711h6.829c1.012-1.814,2.473-3.384,4.258-4.612
	c-0.725-0.712-1.564-1.3-2.483-1.736c-1.743,2.43-5.126,2.987-7.556,1.242C7.86,66,7.44,65.58,7.097,65.102
	c-2.625,1.254-4.475,3.604-4.735,6.344h3.59v-1.711c0-0.375,0.304-0.671,0.671-0.671H6.62L6.62,69.063z M8.899,64.436
	C8.73,64.48,8.568,64.534,8.4,64.582c0.775,0.903,1.905,1.426,3.095,1.428c1.203,0,2.307-0.547,3.074-1.433
	c-0.141-0.043-0.288-0.097-0.433-0.131c-0.748,0.565-1.617,0.922-2.625,0.922C10.473,65.368,9.612,64.983,8.899,64.436L8.899,64.436
	z M7.405,59.794l0.114,0.298c0.207,0.567,0.769,1.92,1.732,2.879c0.217,0.215,0.443,0.406,0.697,0.567
	c0.455,0.287,0.975,0.476,1.564,0.476c0.557,0,1.066-0.188,1.531-0.476c0.25-0.157,0.488-0.347,0.708-0.564
	c0.764-0.755,1.337-1.796,1.667-2.763l0.098-0.293l0.281-0.113c0.286-0.119,0.54-0.448,0.639-0.844
	c0.324-1.288,0.118-1.484,0.075-1.504l-0.342-0.195V55.94c0.071-2.181-0.421-3.327-1.628-3.846l-0.259-0.115l-0.098-0.266
	c-0.12-0.313-0.196-0.644-0.227-0.978L13.93,50.46l-0.167,0.161c-0.741,0.699-3.621,0.996-3.647,0.996l-0.499,0.081
	c-2.852,0.45-2.819,1.646-2.77,3.454c0.004,0.247,0.011,0.508,0.011,0.781l0.037,1.199l-0.314,0.204
	c-0.178,0.115-0.303,0.611-0.059,1.612c0.096,0.392,0.362,0.688,0.562,0.748L7.405,59.794z M21.328,59.686l0.108,0.308
	c0.313,0.866,1.184,2.967,2.7,4.41c0.21,0.201,0.433,0.385,0.671,0.553c0.292,0.21,0.605,0.401,0.946,0.547
	c0.536,0.237,1.12,0.379,1.765,0.379c0.61,0,1.174-0.153,1.704-0.38c0.343-0.146,0.67-0.328,0.974-0.546
	c0.238-0.17,0.46-0.357,0.671-0.553c1.213-1.141,2.116-2.754,2.619-4.246l0.098-0.287l0.281-0.119
	c0.509-0.208,0.936-0.769,1.104-1.425c0.374-1.454,0.363-2.305-0.032-2.526l-0.347-0.194v-1.742c0.07-2.331-0.178-4.836-2.549-5.865
	l-0.259-0.115l-0.098-0.265c-0.254-0.675-0.302-1.261-0.314-1.372l-0.097-0.99l-0.699,0.652c-0.984,0.934-5.08,1.359-5.118,1.366
	l-0.741,0.113c-4.404,0.698-4.351,2.635-4.275,5.318c0.012,0.359,0.022,0.732,0.022,1.13l0.049,1.575l-0.308,0.206
	c-0.477,0.312-0.554,1.282-0.217,2.667c0.173,0.698,0.66,1.196,1.022,1.304L21.328,59.686L21.328,59.686z M27.528,67.228
	c-1.5,0-2.733-0.563-3.749-1.373c-0.438,0.115-0.872,0.237-1.289,0.385c1.175,1.587,3.034,2.524,5.011,2.525
	c1.977,0.002,3.836-0.936,5.01-2.525c-0.416-0.147-0.839-0.274-1.267-0.38C30.191,66.693,28.951,67.229,27.528,67.228L27.528,67.228
	z M40.905,64.436c-0.168,0.045-0.326,0.099-0.494,0.146c0.772,0.903,1.901,1.426,3.09,1.428c1.184-0.007,2.308-0.531,3.074-1.433
	c-0.142-0.043-0.287-0.097-0.433-0.131c-0.748,0.565-1.618,0.922-2.625,0.922C42.479,65.368,41.618,64.983,40.905,64.436
	L40.905,64.436z M39.41,59.794l0.118,0.309c0.207,0.568,0.774,1.92,1.733,2.879c0.215,0.216,0.448,0.411,0.702,0.566
	c0.455,0.294,0.976,0.478,1.565,0.478c0.557,0,1.066-0.19,1.53-0.478c0.255-0.163,0.493-0.353,0.71-0.566
	c0.763-0.758,1.334-1.795,1.665-2.766l0.092-0.293l0.282-0.112c0.293-0.119,0.547-0.449,0.645-0.845
	c0.318-1.287,0.113-1.482,0.069-1.505l-0.341-0.193v-1.322c0.07-2.179-0.422-3.325-1.628-3.846l-0.26-0.113l-0.099-0.266
	c-0.119-0.32-0.195-0.657-0.227-1l-0.027-0.261l-0.167,0.161c-0.746,0.699-3.626,0.996-3.651,0.996l-0.499,0.081
	c-2.853,0.45-2.818,1.646-2.771,3.454c0.006,0.247,0.012,0.508,0.012,0.781l0.037,1.199l-0.315,0.204
	c-0.177,0.115-0.302,0.611-0.058,1.612c0.097,0.392,0.364,0.688,0.563,0.748L39.41,59.794L39.41,59.794z M27.37,41.055
	c-1.406,0.328-2.815-0.165-3.504-1.205c-0.163-0.006-0.325-0.027-0.483-0.065c-0.809-0.191-1.416-0.757-1.583-1.474
	c-0.167-0.718,0.126-1.493,0.768-2.023c0.287-0.235,0.618-0.409,0.974-0.51c0.189-0.313,0.43-0.591,0.713-0.822
	c0.441-0.362,0.961-0.618,1.519-0.746c1.038-0.242,2.082-0.045,2.853,0.526c0.463-0.252,1.001-0.327,1.515-0.211
	c0.631,0.15,1.107,0.591,1.237,1.15c0.05,0.217,0.047,0.442-0.006,0.663c0.323,0.269,0.541,0.613,0.632,1.007
	c0.167,0.718-0.128,1.494-0.77,2.023c-0.542,0.449-1.292,0.676-1.994,0.608c-0.108,0.121-0.227,0.232-0.35,0.337
	C28.447,40.671,27.927,40.926,27.37,41.055L27.37,41.055z M23.807,36.342c-0.275,0.064-0.545,0.197-0.768,0.382
	c-0.451,0.372-0.659,0.918-0.541,1.423c0.117,0.503,0.544,0.899,1.114,1.035c0.152,0.037,0.317,0.051,0.491,0.046
	c0.133-0.003,0.253,0.058,0.31,0.159c0.505,0.896,1.663,1.335,2.817,1.065c0.438-0.102,0.849-0.303,1.187-0.584
	c0.143-0.117,0.274-0.252,0.389-0.398c0.093-0.114,0.242-0.168,0.387-0.14c0.557,0.099,1.13-0.049,1.57-0.405
	c0.45-0.373,0.658-0.918,0.541-1.421c-0.076-0.323-0.271-0.599-0.565-0.798c-0.11-0.071-0.156-0.212-0.105-0.335
	c0.069-0.175,0.086-0.362,0.045-0.538c-0.081-0.346-0.374-0.618-0.767-0.712c-0.386-0.086-0.79,0.002-1.104,0.24
	c-0.148,0.114-0.363,0.112-0.491-0.002c-0.613-0.556-1.511-0.762-2.403-0.554c-0.438,0.102-0.849,0.304-1.187,0.584
	c-0.255,0.208-0.467,0.466-0.622,0.757c-0.054,0.098-0.151,0.167-0.26,0.188C23.835,36.336,23.814,36.341,23.807,36.342z
	 M39.904,35.125c-2.164,0.504-4.335-0.268-5.397-1.887c-0.251-0.011-0.5-0.046-0.745-0.104c-1.246-0.301-2.183-1.182-2.443-2.298
	c-0.261-1.117,0.188-2.321,1.174-3.143c0.438-0.363,0.947-0.632,1.495-0.79c0.29-0.484,0.661-0.916,1.095-1.275
	c0.677-0.562,1.477-0.957,2.334-1.155c1.598-0.373,3.205-0.061,4.394,0.829c0.698-0.386,1.563-0.508,2.332-0.322
	c0.975,0.237,1.706,0.923,1.908,1.794c0.079,0.337,0.075,0.688-0.006,1.03c0.498,0.418,0.834,0.955,0.977,1.567
	c0.261,1.117-0.19,2.322-1.176,3.143c-0.833,0.696-1.984,1.045-3.067,0.938c-0.165,0.187-0.347,0.36-0.537,0.521
	C41.56,34.532,40.762,34.927,39.904,35.125L39.904,35.125z M34.402,27.785c-0.424,0.099-0.839,0.304-1.182,0.591
	c-0.692,0.579-1.011,1.425-0.828,2.209c0.183,0.784,0.841,1.403,1.719,1.615c0.234,0.056,0.489,0.081,0.756,0.074
	c0.205-0.005,0.391,0.089,0.479,0.249c0.781,1.395,2.565,2.082,4.34,1.667c0.674-0.157,1.306-0.469,1.825-0.903
	c0.224-0.185,0.423-0.392,0.599-0.62c0.143-0.176,0.372-0.26,0.595-0.216c0.847,0.16,1.76-0.077,2.414-0.622
	c0.693-0.578,1.011-1.425,0.828-2.208c-0.117-0.502-0.419-0.931-0.872-1.241c-0.174-0.111-0.242-0.331-0.164-0.521
	c0.106-0.266,0.13-0.557,0.066-0.836c-0.125-0.538-0.578-0.962-1.182-1.109c-0.593-0.135-1.217,0-1.7,0.369
	c-0.229,0.177-0.559,0.174-0.756-0.005c-0.945-0.867-2.33-1.191-3.701-0.872c-0.676,0.157-1.306,0.47-1.826,0.904
	c-0.393,0.324-0.717,0.723-0.954,1.174c-0.083,0.152-0.23,0.259-0.399,0.291C34.447,27.777,34.414,27.783,34.402,27.785
	L34.402,27.785z"/>
</svg>
