<?xml version="1.0" encoding="utf-8"?>
<!-- Generator: Adobe Illustrator 16.0.0, SVG Export Plug-In . SVG Version: 6.00 Build 0)  -->
<!DOCTYPE svg PUBLIC "-//W3C//DTD SVG 1.1//EN" "http://www.w3.org/Graphics/SVG/1.1/DTD/svg11.dtd">
<svg version="1.1" id="Layer_1" xmlns="http://www.w3.org/2000/svg" xmlns:xlink="http://www.w3.org/1999/xlink" x="0px" y="0px"
	 width="50px" height="76px" viewBox="0 0 50 76" enable-background="new 0 0 50 76" xml:space="preserve">
<path fill="#3B4EF8" d="M44.016,44.05c-0.851,0.253-2.344,1.147-3.1,1.856c-0.439,0.408-2.438,2.469-4.434,4.592
	c-4.277,4.514-4.168,4.402-4.701,4.402c-0.52,0.016-4.891-1.289-4.813-1.432c0.047-0.047,0.377-0.14,0.74-0.203
	c1.021-0.158,3.254-0.865,4.104-1.291c2.627-1.336,3.381-3.709,1.715-5.455c-0.44-0.473-1.557-1.101-2.233-1.258
	c-0.22-0.064-4.45-0.253-9.388-0.426c-9.608-0.346-9.671-0.346-11.008,0.393c-0.85,0.473-9.357,7.5-9.97,8.24
	C0,54.585,0,54.68,0,64.916c0,7.706,0.031,9.436,0.22,9.876c0.283,0.66,1.038,1.085,1.746,0.96c0.55-0.109,0.55-0.096,5.236-4.215
	c2.265-1.98,3.555-3.02,4.01-3.178c0.393-0.141,5.016-0.676,11.747-1.352c11.559-1.18,11.715-1.195,12.895-2.045
	c0.566-0.408,13.004-15.348,13.414-16.134c0.66-1.21,0.487-2.468-0.504-3.569c-0.832-0.928-1.887-1.367-3.24-1.354
	c-0.598,0.002-1.289,0.064-1.51,0.144H44.016z M46.814,46.66c0.283,0.22,0.519,0.52,0.519,0.676c0,0.441-12.612,15.6-13.257,15.945
	c-0.409,0.205-2.877,0.504-11.291,1.369c-5.913,0.597-11.102,1.162-11.542,1.258c-1.384,0.299-2.076,0.77-5.442,3.711
	c-1.808,1.589-3.333,2.895-3.365,2.895c-0.047,0-0.079-3.759-0.079-8.334c0-6.684,0.047-8.445,0.22-8.854
	c0.268-0.631,9.105-7.958,9.954-8.256c0.456-0.158,2.218-0.127,9.372,0.125c8.13,0.299,8.838,0.347,9.419,0.645
	c0.33,0.174,0.646,0.409,0.707,0.551c0.269,0.725-1.541,1.793-4.119,2.422c-1.133,0.283-4.45,1.416-6.998,2.391
	c-0.346,0.126,0.299,0.41,4.796,2.107c5.599,2.09,6.149,2.217,7.454,1.697c0.472-0.189,1.73-1.4,5.063-4.875
	c5.223-5.472,5.693-5.85,7.282-5.865C46.105,46.251,46.404,46.346,46.814,46.66z M41.309,0H8.57L0.492,12.662v28.283h48.568V12.672
	L41.309,0z M40.244,1.903l6.402,10.477H28.993L28.186,1.903H40.244z M21.44,14.283h5.714v8.569H21.44v-8.57V14.283z M26.277,1.903
	l0.808,10.477H21.52l0.808-10.477H26.277L26.277,1.903z M9.615,1.903h10.799L19.606,12.38H2.931L9.615,1.903L9.615,1.903z
	 M2.395,39.043v-24.76h17.137V24.76h9.524V14.283H47.15v24.76H2.395z M44.296,27.614h-6.665c-0.525,0.017-0.938,0.457-0.92,0.982
	c0.016,0.502,0.418,0.904,0.92,0.921h6.665c0.525-0.017,0.938-0.457,0.921-0.982C45.2,28.033,44.797,27.63,44.296,27.614z
	 M44.296,31.425h-13.33c-0.525,0.017-0.938,0.457-0.921,0.982c0.017,0.501,0.42,0.905,0.921,0.921h13.33
	c0.525-0.017,0.938-0.457,0.921-0.982C45.2,31.844,44.797,31.441,44.296,31.425z M44.296,35.231H35.73
	c-0.525,0.017-0.938,0.457-0.921,0.982c0.017,0.501,0.419,0.904,0.921,0.92h8.567c0.526-0.017,0.938-0.457,0.921-0.982
	c-0.017-0.502-0.419-0.905-0.921-0.921H44.296z"/>
</svg>
