<svg xmlns="http://www.w3.org/2000/svg" width="248.202" height="37.109" viewBox="0 0 248.202 37.109">
  <g id="logo" transform="translate(-8.916 -1.34)">
    <path id="Path_24094" data-name="Path 24094" d="M32.027,18.061,29.248,15.3a15.194,15.194,0,0,0-4.466,4.565,7.3,7.3,0,0,0-2.4-1.821,8.46,8.46,0,0,0-3.7-.79,9.341,9.341,0,0,0-5,1.353,9.611,9.611,0,0,0-3.47,3.745,11.338,11.338,0,0,0-1.288,5.433,11.071,11.071,0,0,0,1.288,5.39,9.929,9.929,0,0,0,3.47,3.745,9.143,9.143,0,0,0,4.982,1.4,8.538,8.538,0,0,0,3.741-.79,7.043,7.043,0,0,0,2.375-1.8,15.22,15.22,0,0,0,4.458,4.552l2.791-2.77a16.216,16.216,0,0,1,0-19.45M23.3,31.2a3.749,3.749,0,0,1-.326.313A4.338,4.338,0,0,1,20.01,32.53a4.509,4.509,0,0,1-2.319-.6,4.376,4.376,0,0,1-1.632-1.688,5.252,5.252,0,0,1,0-4.913,4.393,4.393,0,0,1,1.632-1.683,4.471,4.471,0,0,1,2.319-.606,4.69,4.69,0,0,1,2.388.606,4.213,4.213,0,0,1,.575.429,3.925,3.925,0,0,1,1.009,1.237,5.261,5.261,0,0,1,.541,2.431,4.879,4.879,0,0,1-1.233,3.436" transform="translate(0 -7.965)" fill="#fff"/>
    <path id="Path_24095" data-name="Path 24095" d="M134.269,41.511a10.41,10.41,0,0,1-4.956-1.168,8.533,8.533,0,0,1-3.41-3.182,8.821,8.821,0,0,1-1.215-4.642V20.82h6.442v11.6a4.08,4.08,0,0,0,.374,1.808,2.74,2.74,0,0,0,1.091,1.19,3.268,3.268,0,0,0,1.671.429,2.839,2.839,0,0,0,2.237-.915,3.62,3.62,0,0,0,.816-2.5v-11.6h6.442V32.514a9.019,9.019,0,0,1-1.2,4.7,8.37,8.37,0,0,1-3.324,3.165,10.38,10.38,0,0,1-4.965,1.129" transform="translate(-66.052 -11.114)" fill="#fff"/>
    <path id="Path_24096" data-name="Path 24096" d="M354.008,20.888a7.674,7.674,0,0,0-3.977-1.039,8.9,8.9,0,0,0-4.2.979,7.546,7.546,0,0,0-1.525,1.061V20.265H337.86V40.956H344.3V28.966a3.556,3.556,0,0,1,.46-1.834,3.221,3.221,0,0,1,1.254-1.207,3.659,3.659,0,0,1,1.8-.429,3.436,3.436,0,0,1,2.512.979,3.38,3.38,0,0,1,1,2.521v11.96h6.442V27.549a7.675,7.675,0,0,0-1-3.865A7.567,7.567,0,0,0,354,20.875" transform="translate(-187.677 -10.559)" fill="#fff"/>
    <path id="Path_24097" data-name="Path 24097" d="M407.57,20.888a7.67,7.67,0,0,0-3.972-1.039,8.89,8.89,0,0,0-4.187.979,7.456,7.456,0,0,0-1.529,1.061V20.265H391.44V40.957h6.442V28.966a3.6,3.6,0,0,1,.46-1.834,3.251,3.251,0,0,1,1.245-1.207,3.672,3.672,0,0,1,1.8-.429,3.436,3.436,0,0,1,2.512.979,3.367,3.367,0,0,1,1,2.521v11.96h6.442V27.549a7.674,7.674,0,0,0-1-3.865,7.567,7.567,0,0,0-2.77-2.8" transform="translate(-218.247 -10.56)" fill="#fff"/>
    <path id="Path_24098" data-name="Path 24098" d="M461.222,21.045a10.779,10.779,0,0,0-5.355-1.288,11.256,11.256,0,0,0-5.583,1.374A10.23,10.23,0,0,0,445,30.282a10.4,10.4,0,0,0,1.464,5.5,10.161,10.161,0,0,0,4.015,3.766,12.33,12.33,0,0,0,5.849,1.357,12.66,12.66,0,0,0,4.724-.859,9.109,9.109,0,0,0,3.642-2.641l-3.56-3.5a5.969,5.969,0,0,1-2.147,1.559,6.734,6.734,0,0,1-2.68.52,5.54,5.54,0,0,1-2.822-.687,4.634,4.634,0,0,1-1.842-1.975,5.9,5.9,0,0,1-.339-.859l14.541-.069a8.257,8.257,0,0,0,.275-1.357c.039-.4.06-.794.06-1.185a10.238,10.238,0,0,0-1.336-5.244,9.581,9.581,0,0,0-3.642-3.577m-7.885,4.295a4.75,4.75,0,0,1,2.615-.709,4.316,4.316,0,0,1,2.362.627,3.865,3.865,0,0,1,1.486,1.765,5.528,5.528,0,0,1,.322,1l-8.8.052a5.9,5.9,0,0,1,.3-.773,4.681,4.681,0,0,1,1.718-1.958" transform="translate(-248.802 -10.506)" fill="#fff"/>
    <path id="Path_24099" data-name="Path 24099" d="M513.369,34.651a5.665,5.665,0,0,1-2.237.429,4.81,4.81,0,0,1-2.383-.623,4.265,4.265,0,0,1-1.718-1.683,5.034,5.034,0,0,1-.606-2.5,4.831,4.831,0,0,1,.605-2.435,4.368,4.368,0,0,1,1.675-1.666,4.827,4.827,0,0,1,2.4-.6,5.815,5.815,0,0,1,2.147.374,4.449,4.449,0,0,1,1.653,1.168l4.14-4.161a10.405,10.405,0,0,0-3.534-2.4,11.6,11.6,0,0,0-4.4-.807,11.922,11.922,0,0,0-5.72,1.4,10.376,10.376,0,0,0-4.015,3.766,10.225,10.225,0,0,0-1.464,5.433,10.35,10.35,0,0,0,1.443,5.4,10.139,10.139,0,0,0,4,3.788,11.9,11.9,0,0,0,5.729,1.366,10.767,10.767,0,0,0,8.117-3.371l-4.14-4.08a4.724,4.724,0,0,1-1.718,1.207" transform="translate(-280.137 -10.503)" fill="#fff"/>
    <path id="Path_24100" data-name="Path 24100" d="M247.373,34.65a5.686,5.686,0,0,1-2.242.429,4.823,4.823,0,0,1-2.383-.623,4.256,4.256,0,0,1-1.692-1.683,4.99,4.99,0,0,1-.61-2.5,4.789,4.789,0,0,1,.61-2.435,4.385,4.385,0,0,1,1.671-1.666,4.827,4.827,0,0,1,2.4-.6,5.8,5.8,0,0,1,2.147.374,4.449,4.449,0,0,1,1.653,1.168l4.14-4.161a10.363,10.363,0,0,0-3.534-2.4,11.565,11.565,0,0,0-4.419-.807,11.9,11.9,0,0,0-5.716,1.4,10.376,10.376,0,0,0-4.015,3.766,10.191,10.191,0,0,0-1.469,5.433,10.389,10.389,0,0,0,1.443,5.4,10.2,10.2,0,0,0,4,3.788,11.909,11.909,0,0,0,5.733,1.366,10.788,10.788,0,0,0,8.117-3.371l-4.144-4.08a4.689,4.689,0,0,1-1.692,1.207" transform="translate(-128.373 -10.502)" fill="#fff"/>
    <path id="Path_24101" data-name="Path 24101" d="M566.132,9.706h-4.6V1.34h-6.442V9.706H550.53V15.16h4.561V30.393h6.442V15.16h4.6Z" transform="translate(-309.014)" fill="#fff"/>
    <path id="Path_24102" data-name="Path 24102" d="M295.656,21.152a12.424,12.424,0,0,0-11.424,0,10.509,10.509,0,0,0-3.951,3.766,10.049,10.049,0,0,0-1.443,5.33,10.208,10.208,0,0,0,1.464,5.411,10.689,10.689,0,0,0,3.972,3.826,12.132,12.132,0,0,0,11.381,0,10.737,10.737,0,0,0,3.972-3.809,10.161,10.161,0,0,0,1.464-5.428,10.028,10.028,0,0,0-1.464-5.351,10.406,10.406,0,0,0-3.972-3.745m-1.675,11.677a3.887,3.887,0,0,1-1.61,1.683,5.153,5.153,0,0,1-4.771,0,4.05,4.05,0,0,1-1.628-1.683,5.3,5.3,0,0,1-.623-2.542,5,5,0,0,1,.588-2.414,4.247,4.247,0,0,1,1.628-1.688,4.724,4.724,0,0,1,2.388-.6,4.591,4.591,0,0,1,2.362.6,4.3,4.3,0,0,1,1.623,1.666,4.96,4.96,0,0,1,.588,2.435,5.45,5.45,0,0,1-.567,2.521" transform="translate(-154.002 -10.51)" fill="#fff"/>
    <path id="Path_24103" data-name="Path 24103" d="M82.307,20.264V21.9a7.219,7.219,0,0,0-1.86-1.267,8.482,8.482,0,0,0-3.706-.79,9.319,9.319,0,0,0-8.49,5.1A11.531,11.531,0,0,0,67,30.378a11.256,11.256,0,0,0,1.258,5.39,9.835,9.835,0,0,0,3.436,3.745,9.178,9.178,0,0,0,5.038,1.4,8.508,8.508,0,0,0,3.685-.79,7.206,7.206,0,0,0,1.881-1.288V49.008h6.36V20.234ZM78.039,35.123a4.582,4.582,0,0,1-2.341-.61,4.084,4.084,0,0,1-1.61-1.683,5.218,5.218,0,0,1-.567-2.456,5.081,5.081,0,0,1,.588-2.456,4.3,4.3,0,0,1,1.61-1.688,4.591,4.591,0,0,1,2.362-.6,4.492,4.492,0,0,1,2.345.6,4.363,4.363,0,0,1,1.6,1.671,4.956,4.956,0,0,1,.584,2.435,4.793,4.793,0,0,1-1.288,3.436A4.342,4.342,0,0,1,78.039,35.1" transform="translate(-33.137 -10.558)" fill="#fff"/>
    <path id="Path_24104" data-name="Path 24104" d="M191.612,22.064a7.266,7.266,0,0,0-1.9-1.288,8.46,8.46,0,0,0-3.68-.777,9.336,9.336,0,0,0-5,1.348,9.6,9.6,0,0,0-3.474,3.749,11.363,11.363,0,0,0-1.288,5.433,11.114,11.114,0,0,0,1.288,5.385,9.942,9.942,0,0,0,3.491,3.749,9.19,9.19,0,0,0,4.982,1.379,8.619,8.619,0,0,0,3.745-.79,7.232,7.232,0,0,0,1.86-1.288v1.649h6.317V20.389h-6.339Zm-4.264,13.184a4.514,4.514,0,0,1-2.323-.6,4.406,4.406,0,0,1-1.632-1.688,5.278,5.278,0,0,1,0-4.909,4.38,4.38,0,0,1,3.955-2.289,4.668,4.668,0,0,1,2.383.6,3.985,3.985,0,0,1,1.589,1.666,5.231,5.231,0,0,1,.545,2.435,4.87,4.87,0,0,1-1.237,3.436,4.252,4.252,0,0,1-3.281,1.331" transform="translate(-95.481 -10.644)" fill="#fff"/>
    <path id="Path_24105" data-name="Path 24105" d="M32.027,18.061,29.248,15.3a15.194,15.194,0,0,0-4.466,4.565,7.3,7.3,0,0,0-2.4-1.821,8.46,8.46,0,0,0-3.7-.79,9.341,9.341,0,0,0-5,1.353,9.611,9.611,0,0,0-3.47,3.745,11.338,11.338,0,0,0-1.288,5.433,11.071,11.071,0,0,0,1.288,5.39,9.929,9.929,0,0,0,3.47,3.745,9.143,9.143,0,0,0,4.982,1.4,8.538,8.538,0,0,0,3.741-.79,7.043,7.043,0,0,0,2.375-1.8,15.22,15.22,0,0,0,4.458,4.552l2.791-2.77a16.216,16.216,0,0,1,0-19.45M23.3,31.2a3.749,3.749,0,0,1-.326.313A4.338,4.338,0,0,1,20.01,32.53a4.509,4.509,0,0,1-2.319-.6,4.406,4.406,0,0,1-1.632-1.688,5.252,5.252,0,0,1,0-4.913,4.393,4.393,0,0,1,1.632-1.683,4.471,4.471,0,0,1,2.319-.606,4.69,4.69,0,0,1,2.388.606,4.213,4.213,0,0,1,.575.429,3.925,3.925,0,0,1,1.009,1.237,5.261,5.261,0,0,1,.541,2.431,4.879,4.879,0,0,1-1.233,3.436" transform="translate(0 -7.965)" fill="#fff"/>
  </g>
</svg>
