<?xml version="1.0" encoding="utf-8"?>
<!-- Generator: Adobe Illustrator 23.0.3, SVG Export Plug-In . SVG Version: 6.00 Build 0)  -->
<svg version="1.1" id="Layer_1" xmlns="http://www.w3.org/2000/svg" xmlns:xlink="http://www.w3.org/1999/xlink" x="0px" y="0px"
	 viewBox="0 0 215 35" style="enable-background:new 0 0 215 35;" xml:space="preserve">
<style type="text/css">
	.st0{fill:#1A1A18;}
</style>
<g>
	<path class="st0" d="M3,32.1V2.9h18.8c5.4,0,9.5,1.3,12.4,3.8c2.9,2.5,4.3,6.1,4.3,10.7c0,2.7-0.6,5.2-1.7,7.4
		c-1.1,2.2-2.7,3.9-4.8,5.2c-1.3,0.8-2.9,1.4-4.8,1.7c-1.9,0.4-4.3,0.5-7.3,0.5H3z M9.8,26.6h8.8c4.7,0,8-0.7,10-2.2
		c2-1.5,2.9-3.9,2.9-7.2c0-3-0.8-5.3-2.4-6.8c-1.6-1.5-4-2.3-7.2-2.3H9.8V26.6z"/>
	<polygon class="st0" points="48.5,32.1 48.5,2.9 78.5,2.9 78.5,7.8 55.4,7.8 55.4,14.4 68.9,14.4 68.9,19.4 55.4,19.4 55.4,26.6 
		78.8,26.6 78.8,32.1 	"/>
	<path class="st0" d="M88.5,32.1V2.9h25c2.3,0,4,0.4,5.1,1.3c1,0.9,1.6,2.3,1.6,4.3v6.9c0,2-0.5,3.4-1.6,4.3c-1,0.9-2.7,1.4-5.1,1.4
		h-3.8l13.5,11.1h-9.8l-11.8-11.1h-6.5v11.1H88.5z M110.5,7.9H95.2v8.1h15.3c1.2,0,2-0.2,2.4-0.5c0.4-0.3,0.6-0.9,0.6-1.8v-3.5
		c0-0.8-0.2-1.4-0.6-1.8C112.5,8.1,111.7,7.9,110.5,7.9z"/>
	<path class="st0" d="M133.1,32.1V2.9h25.1c2.3,0,4,0.5,5,1.4c1,0.9,1.6,2.3,1.6,4.3v3.6c0,1.4-0.4,2.5-1.3,3.4
		c-0.9,0.8-2.1,1.4-3.7,1.6c1.7,0.2,3,0.8,3.9,1.8c0.9,1,1.4,2.3,1.4,3.8v3.7c0,1.9-0.7,3.4-2.1,4.3c-1.4,0.9-3.6,1.4-6.5,1.4H133.1
		z M155.4,7.6h-15.5v7h15.5c1.2,0,2-0.2,2.5-0.5c0.5-0.3,0.7-0.9,0.7-1.6V9.7c0-0.8-0.2-1.3-0.7-1.6C157.4,7.8,156.6,7.6,155.4,7.6z
		 M155.4,19.4h-15.5v7.5h15.5c1.3,0,2.2-0.2,2.6-0.6c0.5-0.4,0.7-1.1,0.7-2V22c0-1-0.2-1.7-0.7-2C157.5,19.6,156.7,19.4,155.4,19.4z
		"/>
	<polygon class="st0" points="190,32.1 190,19 174.8,2.9 183.8,2.9 193.9,14.1 204,2.9 212,2.9 196.8,18.9 196.8,32.1 	"/>
</g>
</svg>
