<svg width="132" height="51" viewBox="0 0 132 51" fill="none" xmlns="http://www.w3.org/2000/svg">
<path d="M0 23.7712H7.19894V28.3752H0V23.7712Z" fill="#B4C0D0"/>
<path d="M8.4548 20.423C10.304 20.423 11.8032 18.9239 11.8032 17.0747C11.8032 15.2254 10.304 13.7263 8.4548 13.7263C6.60555 13.7263 5.10645 15.2254 5.10645 17.0747C5.10645 18.9239 6.60555 20.423 8.4548 20.423Z" fill="#2945FF"/>
<path d="M9.29194 9.12294C10.4477 9.12294 11.3847 8.186 11.3847 7.03022C11.3847 5.87444 10.4477 4.9375 9.29194 4.9375C8.13616 4.9375 7.19922 5.87444 7.19922 7.03022C7.19922 8.186 8.13616 9.12294 9.29194 9.12294Z" fill="#2945FF"/>
<path d="M18.9181 14.1453C20.5362 14.1453 21.8479 12.8335 21.8479 11.2155C21.8479 9.59736 20.5362 8.28564 18.9181 8.28564C17.3 8.28564 15.9883 9.59736 15.9883 11.2155C15.9883 12.8335 17.3 14.1453 18.9181 14.1453Z" fill="#2945FF"/>
<path d="M26.6613 37.3745C26.6613 39.3556 26.3404 41.1693 25.6986 42.8156C25.0568 44.4339 24.15 45.8151 22.9781 46.9592C21.8341 48.1032 20.4389 48.9961 18.7926 49.6378C17.1464 50.2517 15.3187 50.5586 13.3097 50.5586C11.3007 50.5586 9.4591 50.2517 7.78492 49.6378C6.13865 49.024 4.7435 48.145 3.59948 47.001C2.45546 45.857 1.56256 44.4758 0.920797 42.8574C0.306932 41.2112 0 39.3835 0 37.3745V29.2129H7.19896V37.3745C7.19896 39.3556 7.75702 40.9461 8.87314 42.1459C10.0172 43.3178 11.51 43.9038 13.3516 43.9038C15.1932 43.9038 16.672 43.3178 17.7881 42.1459C18.9042 40.9461 19.4623 39.3556 19.4623 37.3745V29.2129H26.6613V37.3745Z" fill="#18324B"/>
<path d="M19.458 23.8263L26.6527 23.8262V28.3757H19.458L19.458 23.8263Z" fill="#B4C0D0"/>
<path d="M37.4902 21.0986L40.0247 17.5109C41.1219 18.1692 42.1203 18.6519 43.02 18.9591C43.9197 19.2444 44.8084 19.387 45.6861 19.387C46.5638 19.387 47.2551 19.2663 47.7598 19.025C48.2864 18.7616 48.5497 18.4215 48.5497 18.0046C48.5497 17.6754 48.4071 17.4121 48.1218 17.2146C47.8366 16.9952 47.3867 16.8416 46.7723 16.7538L43.3162 16.2272C41.6046 15.9638 40.288 15.3933 39.3664 14.5156C38.4448 13.6159 37.984 12.4529 37.984 11.0266C37.984 9.2711 38.6532 7.88866 39.9918 6.87926C41.3303 5.86987 43.1626 5.36517 45.4886 5.36517C46.7394 5.36517 47.9902 5.55169 49.2409 5.92473C50.5137 6.27582 51.6876 6.79149 52.7629 7.47174L50.2284 10.8949C49.2848 10.3463 48.3851 9.95134 47.5294 9.70997C46.6736 9.44665 45.8178 9.31499 44.962 9.31499C44.2817 9.31499 43.7331 9.43567 43.3162 9.67705C42.8993 9.89649 42.6908 10.1927 42.6908 10.5658C42.6908 10.9169 42.8444 11.2021 43.1516 11.4216C43.4588 11.619 43.9855 11.7726 44.7316 11.8824L48.1877 12.409C49.8992 12.6504 51.2158 13.2209 52.1375 14.1206C53.081 14.9983 53.5528 16.1174 53.5528 17.4779C53.5528 18.3118 53.3553 19.0908 52.9604 19.8149C52.5654 20.539 52.0168 21.1644 51.3146 21.6911C50.6343 22.2177 49.8115 22.6346 48.846 22.9419C47.8804 23.2271 46.8381 23.3698 45.719 23.3698C44.0733 23.3698 42.5372 23.1832 41.1109 22.8102C39.7065 22.4152 38.4996 21.8447 37.4902 21.0986Z" fill="#18324B"/>
<path d="M55.5866 23.0406V5.62849H60.9189V6.7476C61.5333 6.26485 62.2026 5.90278 62.9267 5.66141C63.6728 5.42003 64.4518 5.29934 65.2637 5.29934C66.3389 5.29934 67.3154 5.51877 68.1931 5.95764C69.0928 6.37457 69.8389 6.95607 70.4314 7.70214C71.1335 6.93412 71.9674 6.34165 72.9329 5.92473C73.8984 5.5078 74.9517 5.29934 76.0928 5.29934C78.0677 5.29934 79.6805 5.95764 80.9313 7.27425C82.204 8.59085 82.8404 10.2695 82.8404 12.3103V23.0406H77.5081V13.0344C77.5081 12.0908 77.2448 11.3338 76.7181 10.7633C76.2134 10.1708 75.5332 9.87454 74.6774 9.87454C74.0849 9.87454 73.5473 9.99523 73.0646 10.2366C72.5818 10.456 72.1649 10.7742 71.8138 11.1911C71.8357 11.3667 71.8467 11.5532 71.8467 11.7507C71.8686 11.9263 71.8796 12.1128 71.8796 12.3103V23.0406H66.5474V13.0344C66.5474 12.0908 66.284 11.3338 65.7574 10.7633C65.2527 10.1708 64.5725 9.87454 63.7167 9.87454C63.1242 9.87454 62.5866 9.98426 62.1038 10.2037C61.643 10.4012 61.248 10.7084 60.9189 11.1253V23.0406H55.5866Z" fill="#18324B"/>
<path d="M91.5572 23.3368C89.714 23.3368 88.1999 22.8321 87.0149 21.8227C85.83 20.8133 85.2375 19.5187 85.2375 17.9388C85.2375 16.293 85.8629 15.0093 87.1137 14.0877C88.3864 13.1661 90.1528 12.7052 92.413 12.7052C93.0933 12.7052 93.7625 12.7491 94.4208 12.8369C95.0791 12.9247 95.7265 13.0454 96.3628 13.199V12.3432C96.3628 11.4654 96.0776 10.8181 95.507 10.4012C94.9584 9.96232 94.1356 9.74288 93.0384 9.74288C92.3581 9.74288 91.5901 9.8526 90.7343 10.072C89.8785 10.2915 88.8911 10.6426 87.772 11.1253L85.8629 7.20842C87.2673 6.57206 88.6387 6.10027 89.9773 5.79306C91.3378 5.46391 92.6763 5.29934 93.9929 5.29934C96.4067 5.29934 98.2829 5.88084 99.6214 7.04384C100.96 8.1849 101.629 9.79774 101.629 11.8824V23.0406H96.3628V21.9873C95.6606 22.4701 94.9146 22.8212 94.1246 23.0406C93.3566 23.2381 92.5008 23.3368 91.5572 23.3368ZM90.3064 17.84C90.3064 18.3886 90.5478 18.8165 91.0306 19.1237C91.5133 19.4309 92.1826 19.5845 93.0384 19.5845C93.6748 19.5845 94.2672 19.5187 94.8158 19.387C95.3863 19.2554 95.902 19.0469 96.3628 18.7616V16.5234C95.8581 16.3917 95.3425 16.293 94.8158 16.2272C94.2892 16.1613 93.7516 16.1284 93.203 16.1284C92.2813 16.1284 91.5682 16.282 91.0635 16.5892C90.5588 16.8745 90.3064 17.2914 90.3064 17.84Z" fill="#18324B"/>
<path d="M104.799 23.0406V5.62849H110.131V7.37299C110.701 6.69275 111.371 6.1661 112.139 5.79306C112.907 5.42003 113.763 5.23351 114.706 5.23351C115.211 5.25545 115.617 5.29934 115.924 5.36517C116.231 5.40906 116.494 5.5078 116.714 5.66141V10.3024C116.363 10.1488 115.968 10.0281 115.529 9.94037C115.09 9.83066 114.64 9.7758 114.179 9.7758C113.346 9.7758 112.567 9.97329 111.842 10.3683C111.14 10.7633 110.57 11.3009 110.131 11.9811V23.0406H104.799Z" fill="#18324B"/>
<path d="M121.796 17.7413V10.072H118.274V5.62849H121.796V1.15203L127.128 0V5.62849H132V10.072H127.128V16.688C127.128 17.456 127.293 18.0046 127.622 18.3337C127.973 18.6409 128.577 18.7945 129.433 18.7945C129.849 18.7945 130.244 18.7726 130.617 18.7287C130.99 18.6629 131.396 18.5641 131.835 18.4325V22.7444C131.353 22.898 130.738 23.0187 129.992 23.1064C129.246 23.2161 128.621 23.271 128.116 23.271C126.031 23.271 124.451 22.8102 123.376 21.8886C122.323 20.945 121.796 19.5626 121.796 17.7413Z" fill="#18324B"/>
<path d="M43.1846 25.5092V49.7019H37.8523V26.6613L43.1846 25.5092Z" fill="#18324B"/>
<path d="M61.9369 47.3978C60.8398 48.3194 59.7097 48.9887 58.5467 49.4056C57.4056 49.8226 56.1109 50.031 54.6627 50.031C53.3461 50.031 52.1063 49.8006 50.9433 49.3398C49.7803 48.879 48.7709 48.2426 47.9151 47.4307C47.0812 46.6188 46.412 45.6643 45.9073 44.5671C45.4245 43.448 45.1831 42.263 45.1831 41.0123C45.1831 39.7615 45.4135 38.5875 45.8743 37.4903C46.3571 36.3712 47.0044 35.4057 47.8163 34.5938C48.6282 33.7819 49.5828 33.1455 50.6799 32.6847C51.7991 32.2239 52.995 31.9935 54.2677 31.9935C55.5404 31.9935 56.7144 32.2349 57.7896 32.7176C58.8648 33.2004 59.7865 33.8587 60.5545 34.6926C61.3445 35.5264 61.9589 36.5358 62.3977 37.7208C62.8366 38.8838 63.056 40.1455 63.056 41.506V42.8226H50.647C50.9981 43.6345 51.5467 44.3038 52.2928 44.8304C53.0389 45.3351 53.9166 45.5875 54.926 45.5875C55.6501 45.5875 56.3084 45.4778 56.9009 45.2583C57.4934 45.0169 57.9981 44.6878 58.415 44.2709L61.9369 47.3978ZM54.169 36.3383C53.2912 36.3383 52.5342 36.5797 51.8978 37.0625C51.2614 37.5452 50.8116 38.2254 50.5483 39.1032H57.8225C57.5373 38.2693 57.0655 37.6001 56.4072 37.0954C55.7708 36.5907 55.0247 36.3383 54.169 36.3383Z" fill="#18324B"/>
<path d="M70.6175 49.9981C68.7743 49.9981 67.2602 49.4934 66.0752 48.484C64.8903 47.4746 64.2978 46.1799 64.2978 44.6C64.2978 42.9543 64.9232 41.6706 66.174 40.7489C67.4467 39.8273 69.2131 39.3665 71.4733 39.3665C72.1536 39.3665 72.8228 39.4104 73.4811 39.4982C74.1394 39.5859 74.7868 39.7066 75.4231 39.8602V39.0044C75.4231 38.1267 75.1379 37.4794 74.5673 37.0625C74.0188 36.6236 73.1959 36.4041 72.0987 36.4041C71.4185 36.4041 70.6504 36.5139 69.7946 36.7333C68.9389 36.9527 67.9514 37.3038 66.8323 37.7866L64.9232 33.8697C66.3276 33.2333 67.699 32.7615 69.0376 32.4543C70.3981 32.1252 71.7366 31.9606 73.0532 31.9606C75.467 31.9606 77.3432 32.5421 78.6817 33.7051C80.0203 34.8462 80.6896 36.459 80.6896 38.5436V49.7019H75.4231V48.6486C74.7209 49.1313 73.9749 49.4824 73.1849 49.7019C72.4169 49.8993 71.5611 49.9981 70.6175 49.9981ZM69.3668 44.5013C69.3668 45.0499 69.6081 45.4778 70.0909 45.785C70.5736 46.0922 71.2429 46.2458 72.0987 46.2458C72.7351 46.2458 73.3275 46.1799 73.8761 46.0483C74.4467 45.9166 74.9623 45.7082 75.4231 45.4229V43.1847C74.9184 43.053 74.4028 42.9543 73.8761 42.8884C73.3495 42.8226 72.8119 42.7897 72.2633 42.7897C71.3417 42.7897 70.6285 42.9433 70.1238 43.2505C69.6191 43.5358 69.3668 43.9527 69.3668 44.5013Z" fill="#18324B"/>
<path d="M96.1363 49.7019V48.4182C95.456 48.9009 94.7209 49.274 93.931 49.5373C93.141 49.8006 92.3181 49.9323 91.4623 49.9323C90.2335 49.9323 89.0705 49.7019 87.9733 49.2411C86.8981 48.7802 85.9545 48.1439 85.1426 47.332C84.3527 46.5201 83.7273 45.5765 83.2665 44.5013C82.8056 43.4041 82.5752 42.2301 82.5752 40.9793C82.5752 39.7286 82.8056 38.5656 83.2665 37.4903C83.7492 36.3932 84.3965 35.4496 85.2084 34.6596C86.0204 33.8477 86.9749 33.2114 88.0721 32.7506C89.1912 32.2898 90.3761 32.0593 91.6269 32.0593C92.4388 32.0593 93.2178 32.1581 93.9639 32.3556C94.71 32.5531 95.4121 32.8383 96.0704 33.2114V26.6613L101.403 25.5092V49.7019H96.1363ZM87.8087 40.9793C87.8087 42.2301 88.2476 43.2834 89.1254 44.1392C90.025 44.9731 91.1112 45.39 92.3839 45.39C93.13 45.39 93.8103 45.2803 94.4247 45.0608C95.0391 44.8195 95.5877 44.4684 96.0704 44.0075V37.9182C95.6096 37.5013 95.061 37.1722 94.4247 36.9308C93.7883 36.6894 93.1081 36.5687 92.3839 36.5687C91.0893 36.5687 90.0031 36.9966 89.1254 37.8524C88.2476 38.6863 87.8087 39.7286 87.8087 40.9793Z" fill="#18324B"/>
<path d="M102.865 47.7599L105.4 44.1721C106.497 44.8304 107.495 45.3132 108.395 45.6204C109.295 45.9057 110.184 46.0483 111.061 46.0483C111.939 46.0483 112.63 45.9276 113.135 45.6862C113.662 45.4229 113.925 45.0828 113.925 44.6658C113.925 44.3367 113.782 44.0734 113.497 43.8759C113.212 43.6564 112.762 43.5028 112.147 43.4151L108.691 42.8884C106.98 42.6251 105.663 42.0546 104.742 41.1768C103.82 40.2772 103.359 39.1142 103.359 37.6878C103.359 35.9324 104.028 34.5499 105.367 33.5405C106.705 32.5311 108.538 32.0264 110.864 32.0264C112.115 32.0264 113.365 32.213 114.616 32.586C115.889 32.9371 117.063 33.4528 118.138 34.133L115.604 37.5562C114.66 37.0076 113.76 36.6126 112.904 36.3712C112.049 36.1079 111.193 35.9762 110.337 35.9762C109.657 35.9762 109.108 36.0969 108.691 36.3383C108.274 36.5577 108.066 36.854 108.066 37.227C108.066 37.5781 108.22 37.8634 108.527 38.0828C108.834 38.2803 109.361 38.4339 110.107 38.5436L113.563 39.0703C115.274 39.3116 116.591 39.8822 117.513 40.7819C118.456 41.6596 118.928 42.7787 118.928 44.1392C118.928 44.9731 118.73 45.752 118.335 46.4762C117.94 47.2003 117.392 47.8257 116.69 48.3523C116.009 48.879 115.187 49.2959 114.221 49.6031C113.256 49.8884 112.213 50.031 111.094 50.031C109.448 50.031 107.912 49.8445 106.486 49.4715C105.082 49.0765 103.875 48.5059 102.865 47.7599Z" fill="#18324B"/>
</svg>
