<svg version="1.0" xmlns="http://www.w3.org/2000/svg" width="90" height="90" viewBox="0 0 367.000000 367.000000" preserveAspectRatio="xMidYMid meet" id="homeIcon"><g transform="translate(0.000000,367.000000) scale(0.100000,-0.100000)" fill="#fff" stroke="none"><path d="M1635 3524 c-338 -52 -551 -138 -805 -325 -121 -89 -304 -276 -376
-384 -116 -175 -204 -373 -264 -600 -45 -167 -37 -582 15 -774 82 -304 192
-513 381 -725 112 -125 323 -305 359 -306 6 0 30 -16 54 -35 24 -19 48 -35 53
-35 6 0 64 -23 131 -51 70 -30 186 -68 276 -90 l154 -39 239 0 c136 0 247 4
257 10 10 5 70 20 132 34 102 22 259 73 299 97 8 5 26 14 40 20 102 43 270
157 378 255 290 266 469 580 544 956 32 162 32 439 -1 618 -66 359 -229 662
-497 922 -263 255 -591 407 -974 453 -151 18 -274 18 -395 -1z m352 -124 c252
-22 492 -107 712 -250 116 -75 374 -328 443 -435 125 -191 211 -418 249 -660
7 -44 13 -147 12 -230 -1 -330 -100 -618 -313 -915 -49 -68 -233 -254 -280
-283 -19 -12 -49 -35 -66 -52 -16 -17 -63 -48 -102 -68 -40 -21 -72 -42 -72
-48 0 -5 -8 -9 -18 -9 -10 0 -70 -22 -133 -50 -62 -27 -121 -50 -129 -50 -8 0
-44 -10 -80 -22 -60 -19 -86 -21 -345 -21 -287 1 -398 11 -476 46 -19 8 -62
24 -97 36 -74 26 -274 132 -364 192 -102 69 -297 273 -382 402 -114 170 -193
355 -230 532 -22 107 -39 358 -31 470 35 514 381 1017 868 1262 259 130 531
180 834 153z" class="svg-elem-1"></path><path d="M1271 2629 c-97 -12 -232 -82 -306 -158 -68 -70 -115 -142 -146 -221
-30 -77 -37 -249 -15 -345 28 -119 71 -177 342 -455 137 -140 260 -268 274
-284 42 -47 376 -363 404 -381 29 -19 76 -13 76 9 0 16 32 46 51 47 8 0 34 24
58 52 24 29 188 201 365 382 176 182 347 360 378 396 94 108 138 229 138 379
0 201 -89 374 -244 478 -170 114 -373 136 -567 63 -56 -21 -162 -95 -208 -144
l-24 -26 -73 63 c-149 127 -301 171 -503 145z m224 -134 c83 -22 137 -55 240
-145 49 -44 97 -80 107 -80 10 0 57 36 105 80 141 128 220 160 397 160 87 0
98 -2 166 -36 93 -47 177 -129 220 -218 29 -59 34 -79 38 -169 7 -152 -7 -202
-78 -290 -32 -40 -236 -251 -452 -471 l-393 -398 -387 388 c-490 492 -517 525
-538 660 -23 142 31 294 144 408 33 34 79 71 101 81 95 45 226 57 330 30z" class="svg-elem-2"></path><path d="M1900 2130 c-11 -21 -29 -63 -41 -92 -11 -29 -52 -129 -91 -221 l-71
-168 -19 29 c-10 17 -53 58 -95 93 l-76 63 59 53 c32 29 72 59 87 66 26 11 28
16 25 61 -5 91 -49 85 -182 -23 -94 -77 -146 -136 -146 -165 0 -17 25 -44 100
-107 137 -115 193 -141 229 -106 11 10 12 7 6 -13 -4 -14 -9 -30 -12 -35 -6
-17 36 -55 62 -55 14 0 31 11 43 28 41 57 232 541 232 587 0 27 -25 45 -64 45
-20 0 -30 -9 -46 -40z" class="svg-elem-3"></path><path d="M2019 2059 c-30 -30 -17 -55 72 -140 89 -84 90 -92 28 -134 -48 -34
-119 -110 -119 -128 0 -23 31 -57 52 -57 28 0 140 76 216 147 82 77 83 100 10
171 -29 28 -73 66 -98 84 -101 75 -132 86 -161 57z" class="svg-elem-4"></path></g></svg>