<svg version="1.0" xmlns="http://www.w3.org/2000/svg" width="90" height="90" viewBox="0 0 440.000000 440.000000" preserveAspectRatio="xMidYMid meet" id="homeIcon"><g transform="translate(0.000000,440.000000) scale(0.100000,-0.100000)" fill="#fff" stroke="none"><path d="M2005 4197 c-151 -39 -335 -183 -418 -327 -86 -151 -106 -378 -48
-553 55 -169 227 -348 397 -414 61 -23 87 -27 215 -31 173 -5 238 8 345 69
240 137 367 371 351 647 -3 54 -15 126 -26 163 -56 177 -259 382 -431 434 -73
22 -315 30 -385 12z m286 -137 c64 -12 179 -67 232 -111 49 -40 108 -120 136
-183 94 -214 55 -441 -103 -599 -218 -217 -566 -211 -771 15 -96 106 -134 209
-135 359 0 146 51 270 153 372 130 130 302 182 488 147z" class="svg-elem-1"></path><path d="M2264 3619 l-154 -152 -80 77 c-101 96 -121 106 -158 79 -51 -38 -43
-58 75 -179 60 -61 123 -119 140 -127 31 -17 32 -17 85 24 63 49 269 258 310
313 46 63 30 116 -33 116 -25 0 -55 -24 -185 -151z" class="svg-elem-2"></path><path d="M3404 3712 c-6 -4 -25 -28 -42 -53 -31 -45 -34 -47 -94 -54 -103 -12
-105 -26 -22 -115 l44 -47 -20 -58 c-24 -70 -25 -101 -4 -109 18 -7 42 4 107
51 l47 35 62 -46 c34 -25 68 -46 75 -46 26 0 30 41 13 116 l-17 73 29 28 c40
38 73 92 62 103 -5 5 -38 10 -73 12 l-65 3 -25 44 c-28 48 -60 74 -77 63z
m106 -184 c11 -3 11 -9 -3 -28 -9 -14 -17 -39 -17 -57 0 -32 -21 -46 -35 -23
-9 15 -42 12 -75 -5 l-30 -16 0 44 c0 23 -7 52 -15 64 -14 19 -13 21 10 27 14
4 35 22 47 40 l23 34 41 -37 c22 -21 47 -40 54 -43z" class="svg-elem-3"></path><path d="M941 3626 c-40 -53 -43 -55 -101 -62 -97 -11 -100 -18 -36 -95 l54
-66 -20 -73 c-17 -64 -18 -74 -5 -87 13 -13 19 -13 48 2 19 10 53 31 76 48
l42 29 60 -47 c90 -71 114 -53 84 66 l-18 72 33 35 c84 88 81 112 -13 112 -62
0 -66 1 -77 28 -12 28 -67 92 -79 92 -4 0 -25 -25 -48 -54z m134 -132 l22 -5
-18 -37 c-11 -20 -19 -47 -19 -59 0 -27 -2 -28 -39 -9 -25 13 -31 13 -60 -5
-42 -25 -43 -25 -35 17 5 28 2 42 -15 65 -21 28 -21 29 -2 29 11 0 34 17 52
39 l31 39 30 -34 c17 -19 40 -37 53 -40z" class="svg-elem-4"></path><path d="M514 2840 c-75 -37 -92 -74 -272 -590 -153 -441 -222 -653 -222 -689
0 -80 55 -143 167 -192 113 -50 266 -99 307 -99 29 0 62 10 101 31 l58 31 91
-36 91 -36 3 -52 c4 -98 74 -190 165 -221 47 -15 51 -22 67 -101 11 -53 19
-66 67 -112 30 -29 68 -56 84 -59 35 -8 54 -33 70 -97 14 -60 72 -127 146
-171 53 -30 57 -36 78 -100 27 -84 49 -114 110 -152 64 -40 155 -47 217 -16
88 43 289 222 315 281 9 19 16 64 17 100 1 78 -27 135 -99 198 l-45 39 15 49
c20 66 19 103 -5 167 -25 66 -85 127 -147 148 -49 16 -48 14 -74 114 -26 101
-114 164 -241 174 l-76 6 -34 49 c-53 79 -98 109 -168 114 -114 8 -135 0 -245
-93 -55 -47 -115 -97 -133 -111 l-33 -27 -82 38 c-45 21 -86 41 -90 45 -6 6
313 923 326 936 2 2 46 0 98 -6 198 -21 383 -8 472 33 60 27 82 55 73 93 -11
43 -41 48 -156 24 -142 -29 -222 -35 -305 -21 -129 20 -139 25 -153 75 -24 91
-94 139 -319 216 -130 45 -180 49 -239 20z m256 -174 c129 -52 160 -72 160
-102 0 -14 -18 -82 -41 -152 -63 -196 -309 -881 -336 -939 -23 -48 -28 -53
-58 -53 -67 0 -324 97 -326 123 -3 29 5 60 43 177 56 173 281 823 308 890 12
30 26 66 31 79 9 22 14 23 67 19 34 -3 96 -20 152 -42z m541 -1186 c25 -14 49
-62 49 -97 0 -41 -38 -91 -117 -155 -146 -119 -182 -131 -234 -79 -23 23 -29
38 -29 73 0 41 4 47 86 126 136 129 193 160 245 132z m358 -206 c14 -18 21
-41 21 -70 0 -41 -3 -45 -107 -143 -133 -123 -240 -210 -271 -218 -31 -8 -68
13 -92 53 -42 67 -27 92 146 249 136 123 186 155 240 155 34 0 47 -5 63 -26z
m215 -269 c20 -19 26 -33 26 -67 -1 -55 -12 -73 -85 -139 -267 -240 -305 -261
-366 -200 -29 29 -33 42 -29 91 3 39 22 62 127 152 193 166 224 188 264 188
24 0 44 -8 63 -25z m110 -358 c36 -29 49 -85 29 -126 -21 -42 -141 -154 -205
-191 -78 -44 -123 -38 -153 20 -36 70 -15 108 124 224 132 110 150 116 205 73z" class="svg-elem-5"></path><path d="M3610 2751 c-130 -43 -252 -103 -282 -140 -15 -17 -36 -52 -47 -77
-11 -24 -27 -47 -36 -51 -40 -15 -216 47 -406 142 -155 78 -180 85 -314 85
-140 0 -329 -15 -404 -31 -62 -13 -102 -46 -238 -194 -110 -120 -318 -368
-344 -410 -23 -36 -26 -140 -6 -188 35 -81 161 -155 282 -164 69 -5 79 -4 138
25 75 37 233 167 311 255 61 70 86 126 86 193 0 34 -5 47 -26 63 -15 12 -32
21 -39 21 -20 0 -63 -57 -76 -101 -7 -22 -31 -61 -53 -86 -47 -53 -206 -187
-249 -209 -33 -18 -119 -20 -158 -5 -36 13 -99 70 -99 88 0 24 136 194 338
424 136 157 133 155 332 168 293 19 294 19 419 -43 237 -119 356 -160 490
-170 41 -3 78 -9 83 -14 15 -15 328 -915 328 -943 0 -8 -12 -21 -28 -30 -15
-9 -62 -37 -104 -64 l-78 -48 -77 74 c-129 122 -633 554 -756 648 -97 73 -157
69 -157 -11 0 -27 13 -39 445 -413 171 -147 338 -295 373 -329 57 -56 62 -64
62 -104 0 -49 -29 -86 -76 -98 -38 -10 -77 13 -216 128 -132 108 -166 123
-204 87 -13 -12 -24 -31 -24 -42 0 -13 46 -66 116 -138 65 -64 121 -125 127
-134 16 -29 -9 -93 -46 -115 -59 -36 -78 -28 -234 102 -105 88 -140 113 -171
121 -32 8 -62 -24 -62 -64 0 -27 17 -49 121 -150 l122 -119 -7 -42 c-10 -60
-39 -88 -92 -88 -45 0 -62 11 -238 155 -99 80 -126 91 -161 64 -48 -38 -36
-62 90 -187 140 -138 153 -172 88 -237 -26 -25 -32 -27 -83 -20 -113 14 -140
4 -140 -50 0 -56 68 -94 170 -94 101 -1 162 43 215 152 l30 62 54 8 c91 12
153 63 195 158 25 57 39 69 80 69 38 0 124 50 156 89 16 21 38 59 49 84 18 41
24 47 58 52 55 8 139 52 173 91 16 19 34 53 41 76 6 24 13 48 15 55 3 14 83
73 175 129 64 40 66 41 90 24 35 -25 86 -40 135 -40 49 0 199 49 321 105 68
31 88 45 112 82 40 59 46 107 25 179 -19 66 -267 771 -338 962 -55 146 -66
170 -98 198 -67 62 -146 69 -278 25z m192 -156 c45 -86 375 -1012 385 -1080 5
-37 2 -44 -22 -63 -28 -22 -199 -92 -273 -112 -33 -8 -47 -8 -57 0 -15 12 -66
139 -142 350 -83 232 -239 684 -258 747 -17 60 -17 64 -1 82 28 31 282 132
321 128 13 -1 30 -20 47 -52z" class="svg-elem-6"></path></g></svg>