<svg version="1.0" xmlns="http://www.w3.org/2000/svg" width="90" height="90" viewBox="0 0 412.000000 412.000000" preserveAspectRatio="xMidYMid meet" id="homeIcon"><g transform="translate(0.000000,412.000000) scale(0.100000,-0.100000)" fill="#fff" stroke="none"><path d="M2735 3880 c-167 -17 -349 -134 -461 -296 -75 -108 -111 -283 -94
-450 17 -163 65 -264 185 -388 82 -84 179 -145 285 -178 98 -30 282 -32 375
-4 130 39 257 124 350 235 97 114 135 229 135 406 0 155 -10 209 -61 315 -34
69 -58 101 -128 171 -52 52 -111 100 -151 121 -103 57 -280 85 -435 68z m346
-152 c91 -45 191 -135 238 -212 182 -303 75 -645 -253 -811 l-98 -50 -122 0
-121 0 -95 47 c-127 62 -184 108 -245 198 -69 102 -87 160 -93 296 -5 127 8
189 61 289 61 114 222 248 332 276 16 4 96 7 176 6 l145 -2 75 -37z" class="svg-elem-1"></path><path d="M1132 3536 c-105 -35 -202 -97 -297 -190 -67 -66 -90 -97 -123 -166
-53 -112 -66 -173 -66 -300 0 -118 19 -200 65 -292 35 -69 67 -88 105 -63 13
8 24 20 24 26 0 5 -17 51 -37 102 -36 90 -37 94 -37 233 l-1 141 45 89 c106
209 287 324 510 324 166 0 270 -42 381 -150 177 -174 219 -376 133 -638 -29
-91 -30 -118 -4 -132 37 -20 68 -2 94 55 33 68 63 182 71 267 13 124 -34 303
-109 414 -93 137 -271 260 -424 293 -93 19 -247 13 -330 -13z" class="svg-elem-2"></path><path d="M1440 2453 c-52 -10 -67 -54 -30 -88 17 -15 45 -20 158 -26 157 -8
239 -26 329 -75 77 -41 107 -43 129 -9 15 22 15 29 4 51 -49 91 -407 180 -590
147z" class="svg-elem-3"></path><path d="M2975 2450 c-158 -19 -248 -52 -700 -260 -181 -84 -373 -171 -425
-195 l-94 -42 -111 72 c-60 40 -175 117 -255 173 -174 121 -285 188 -354 214
-42 17 -69 19 -156 16 -92 -4 -111 -8 -153 -32 -219 -127 -269 -406 -106 -589
54 -60 150 -128 544 -382 312 -201 405 -250 499 -265 111 -17 176 -3 430 97
76 30 141 51 145 48 3 -4 9 -183 12 -398 3 -216 9 -400 13 -410 10 -21 54 -33
75 -20 24 15 28 66 36 495 l8 397 243 96 c277 110 339 144 339 190 0 30 0 30
-55 29 -42 -1 -94 -17 -220 -67 -91 -36 -286 -113 -435 -171 -148 -59 -279
-111 -291 -115 -77 -33 -189 -53 -264 -49 -107 6 -154 31 -535 278 -439 286
-446 290 -482 338 -32 43 -33 45 -33 149 0 119 10 149 68 206 44 43 123 67
222 67 l66 0 150 -101 c82 -56 232 -158 333 -228 236 -162 240 -163 300 -143
25 8 242 105 481 214 239 110 474 212 521 228 48 16 133 34 189 41 87 11 117
11 208 -3 170 -25 251 -63 359 -169 101 -99 174 -233 193 -355 6 -39 14 -337
19 -684 4 -338 11 -623 15 -632 8 -18 40 -23 70 -12 14 6 16 65 16 568 -1 308
-5 629 -9 712 -8 136 -12 157 -40 218 -71 157 -188 293 -316 367 -183 106
-314 133 -520 109z" class="svg-elem-4"></path><path d="M322 1967 c-45 -47 -47 -90 -47 -812 l0 -680 32 -3 c58 -6 57 -17 65
663 6 505 10 637 24 713 l16 93 -23 25 c-28 30 -40 30 -67 1z" class="svg-elem-5"></path><path d="M690 1300 c-12 -7 -16 -47 -20 -212 -3 -112 -3 -290 0 -395 6 -216
10 -229 68 -217 l32 7 0 413 0 414 -32 0 c-18 0 -40 -5 -48 -10z" class="svg-elem-6"></path><path d="M1910 888 c-11 -13 -23 -33 -26 -45 -8 -31 1 -324 10 -345 18 -40 81
-33 93 10 5 15 8 102 8 193 0 150 -2 169 -19 188 -24 27 -40 27 -66 -1z" class="svg-elem-7"></path></g></svg>