<svg version="1.0" xmlns="http://www.w3.org/2000/svg" width="90" height="90" viewBox="0 0 437.000000 437.000000" preserveAspectRatio="xMidYMid meet" id="homeIcon"><g transform="translate(0.000000,437.000000) scale(0.100000,-0.100000)" fill="#fff" stroke="none"><path d="M1090 3469 c-381 -68 -670 -339 -779 -730 -21 -79 -45 -212 -56 -319
-8 -73 -14 -88 -61 -146 -77 -93 -103 -233 -70 -364 35 -136 165 -298 326
-407 76 -52 127 -101 216 -208 130 -158 348 -361 537 -501 137 -102 157 -122
157 -156 0 -49 26 -95 70 -123 22 -14 43 -34 46 -43 27 -82 55 -106 170 -142
79 -24 283 -40 447 -34 56 2 172 6 257 8 111 4 176 11 230 26 41 11 130 25
197 30 319 27 579 149 783 367 117 125 205 271 277 458 46 118 71 166 144 277
104 158 177 318 231 502 57 198 56 501 -1 728 -57 226 -132 360 -291 519 -88
89 -119 113 -195 151 -176 90 -347 125 -550 115 -233 -12 -440 -92 -626 -242
-70 -56 -193 -197 -244 -277 -17 -27 -33 -48 -37 -48 -3 0 -17 17 -29 38 -30
49 -218 241 -294 301 -119 95 -240 153 -405 197 -76 21 -124 26 -245 29 -82 2
-175 0 -205 -6z m310 -69 c312 -38 546 -188 774 -492 48 -65 91 -118 95 -118
13 0 46 42 94 120 153 250 386 420 652 475 84 17 296 23 395 10 125 -15 297
-92 412 -183 154 -121 279 -341 333 -587 22 -96 31 -406 16 -518 -22 -167
-133 -427 -266 -627 -62 -94 -66 -98 -136 -129 -103 -46 -287 -98 -449 -126
-54 -10 -562 -15 -590 -6 -22 7 -18 10 35 25 108 32 178 83 190 137 4 16 23
42 46 60 55 43 83 101 75 152 -5 28 -2 47 10 64 21 33 22 105 1 137 -23 34
-21 47 9 76 52 49 59 104 19 156 -59 78 -227 111 -570 114 l-100 0 81 40 c95
46 154 104 154 151 0 37 -24 85 -49 99 -33 17 -147 12 -336 -16 -276 -40 -342
-64 -527 -196 -71 -50 -138 -59 -480 -59 -348 0 -468 12 -701 72 -61 15 -248
82 -265 94 -6 5 18 217 33 291 113 549 512 849 1045 784z m1200 -1045 c32 -39
-6 -67 -226 -161 -142 -60 -186 -92 -164 -119 11 -13 52 -15 309 -14 313 1
398 -6 483 -43 60 -26 76 -50 54 -83 -37 -56 -139 -84 -326 -91 -298 -9 -370
-13 -380 -19 -16 -10 -11 -42 8 -50 30 -13 283 -15 402 -3 181 19 226 17 252
-9 18 -19 20 -27 13 -49 -22 -62 -154 -93 -405 -95 -91 0 -190 -4 -220 -7 -50
-6 -55 -9 -55 -32 0 -21 6 -26 40 -32 69 -13 433 -1 500 16 78 20 114 20 122
1 3 -9 -3 -25 -13 -37 -45 -51 -155 -75 -389 -86 l-140 -7 -3 -33 c-3 -27 -7
-32 -20 -26 -96 42 -415 99 -554 99 -63 0 -82 -4 -106 -22 l-29 -22 -7 67
c-17 189 8 568 43 627 44 77 220 171 356 192 50 7 140 22 200 32 142 24 238
26 255 6z m-2090 -179 c246 -74 385 -89 825 -84 l357 3 -6 -70 c-15 -168 -19
-494 -7 -569 20 -126 38 -117 -237 -115 -277 2 -363 10 -515 48 -478 121 -768
384 -745 676 6 64 30 122 73 173 l25 30 73 -33 c39 -18 110 -45 157 -59z
m1620 -800 c96 -15 191 -32 210 -38 65 -20 173 -82 222 -128 l49 -45 15 -110
c21 -158 26 -420 10 -532 -8 -50 -17 -96 -20 -102 -21 -34 -216 -50 -596 -47
-282 2 -309 4 -361 23 -58 22 -99 44 -99 54 0 3 84 3 188 1 153 -4 190 -2 199
10 24 28 -2 38 -133 48 -270 22 -384 58 -384 121 0 12 40 10 185 -10 91 -13
406 -14 439 -1 31 11 34 35 7 50 -11 5 -82 10 -158 10 -346 1 -522 45 -494
123 13 36 70 49 164 37 90 -11 438 -12 477 -1 17 5 26 15 28 33 l3 27 -221 1
c-235 1 -344 13 -424 48 -51 23 -61 39 -52 78 16 64 190 90 558 82 253 -6 267
-4 253 41 -8 25 -51 51 -167 96 -182 73 -229 106 -207 148 13 24 50 22 309
-17z m739 -2 c-31 -37 -148 -74 -242 -75 -47 -1 -65 4 -97 25 -22 14 -40 31
-40 36 0 6 39 11 93 11 50 1 124 5 162 9 127 13 139 12 124 -6z m-2113 -14
c219 -76 350 -93 729 -94 l320 -1 75 -36 75 -36 -165 -7 c-200 -9 -296 -21
-367 -48 -70 -26 -111 -61 -119 -103 -8 -44 1 -70 43 -116 l35 -39 -25 -29
c-14 -17 -27 -36 -29 -43 -5 -15 -65 25 -197 130 -138 110 -467 442 -438 442
2 0 30 -9 63 -20z m3030 -107 c-12 -49 -90 -215 -141 -302 -56 -93 -177 -228
-266 -297 -159 -122 -379 -204 -592 -220 l-82 -7 3 259 c2 149 -1 299 -7 353
-7 52 -10 95 -9 96 2 1 143 5 313 8 360 6 422 15 630 86 77 26 144 49 149 49
4 1 5 -10 2 -25z" class="svg-elem-1"></path></g></svg>